# Created by Kenney (www.kenney.nl)

mtllib blockSnowHalf.mtl

g blockSnowHalf

v 0.25 0.2981918 0.616514
v 0.2072618 0.29941 0.615811
v 0.2927382 0.29941 0.615811
v 0.3352914 0.303059 0.613704
v 0.1647086 0.303059 0.613704
v 0.3774755 0.3091233 0.610203
v 0.1225245 0.3091233 0.610203
v 0.4191079 0.3175765 0.605322
v 0.08089209 0.3175765 0.605322
v 0.4600084 0.328382 0.599084
v 0.03999162 0.328382 0.599084
v 0.5 0.3414931 0.591514
v -0.03999162 0.3546042 0.583944
v 0.5 0.5 0.5
v -0.08089209 0.3654097 0.577706
v -0.1225245 0.3738629 0.572825
v -0.1647086 0.3799272 0.569324
v -0.2072618 0.3835762 0.567217
v -0.25 0.3847944 0.566514
v -0.5 0.5 0.5
v -0.2927382 0.3835762 0.567217
v -0.3352913 0.3799272 0.569324
v -0.3774755 0.3738629 0.572825
v -0.4191079 0.3654097 0.577706
v -0.4600083 0.3546042 0.583944
v -0.5 0.3414931 0.591514
v -0.591514 0.3414931 -0.5
v -0.5 0.3414931 -0.591514
v -0.5 0.5 -0.5
v 0.591514 0.3414931 -0.5
v 0.5990837 0.328382 -0.4600084
v 0.5 0.5 -0.5
v 0.6053224 0.3175765 -0.4191079
v 0.6102027 0.3091233 -0.3774755
v 0.613704 0.303059 -0.3352914
v 0.6158106 0.29941 -0.2927382
v 0.616514 0.2981918 -0.25
v 0.6158106 0.29941 -0.2072618
v 0.613704 0.303059 -0.1647086
v 0.6102027 0.3091233 -0.1225245
v 0.6053224 0.3175765 -0.08089209
v 0.5839443 0.3546042 0.03999159
v 0.5990837 0.328382 -0.03999162
v 0.5777057 0.3654097 0.08089209
v 0.5728252 0.3738629 0.1225245
v 0.569324 0.3799272 0.1647086
v 0.5672172 0.3835762 0.2072618
v 0.566514 0.3847944 0.25
v 0.5672172 0.3835762 0.2927382
v 0.569324 0.3799272 0.3352913
v 0.5728252 0.3738629 0.3774755
v 0.5777057 0.3654097 0.4191079
v 0.5839443 0.3546042 0.4600083
v 0.591514 0.3414931 0.5
v 0.591514 0.3414931 0
v 0.5 0.3414931 -0.591514
v -0.591514 0.3414931 0.5
v -0.25 0.2981918 -0.616514
v -0.2072618 0.29941 -0.6158106
v -0.2927382 0.29941 -0.6158106
v -0.3352913 0.303059 -0.613704
v -0.1647086 0.303059 -0.613704
v -0.3774755 0.3091233 -0.6102027
v -0.1225245 0.3091233 -0.6102027
v -0.4191079 0.3175765 -0.6053224
v -0.08089209 0.3175765 -0.6053224
v -0.4600083 0.328382 -0.5990837
v -0.03999162 0.328382 -0.5990837
v 0.03999162 0.3546042 -0.5839443
v 0.08089209 0.3654097 -0.5777057
v 0.1225245 0.3738629 -0.5728252
v 0.1647086 0.3799272 -0.569324
v 0.2072618 0.3835762 -0.5672172
v 0.25 0.3847944 -0.566514
v 0.2927382 0.3835762 -0.5672172
v 0.3352914 0.3799272 -0.569324
v 0.3774755 0.3738629 -0.5728252
v 0.4191079 0.3654097 -0.5777057
v 0.4600084 0.3546042 -0.5839443
v -0.583944 0.3546042 -0.4600084
v -0.577706 0.3654097 -0.4191079
v -0.572825 0.3738629 -0.3774755
v -0.569324 0.3799272 -0.3352914
v -0.567217 0.3835762 -0.2927382
v -0.566514 0.3847944 -0.25
v -0.567217 0.3835762 -0.2072618
v -0.569324 0.3799272 -0.1647086
v -0.572825 0.3738629 -0.1225245
v -0.577706 0.3654097 -0.08089209
v -0.583944 0.3546042 -0.03999162
v -0.599084 0.328382 0.03999159
v -0.605322 0.3175765 0.08089209
v -0.610203 0.3091233 0.1225245
v -0.613704 0.303059 0.1647086
v -0.615811 0.29941 0.2072618
v -0.616514 0.2981918 0.25
v -0.615811 0.29941 0.2927382
v -0.613704 0.303059 0.3352913
v -0.610203 0.3091233 0.3774755
v -0.605322 0.3175765 0.4191079
v -0.599084 0.328382 0.4600083
v 0.5 0 0.5
v -0.5 0 0.5
v 0.5 0 -0.5
v -0.5 0 -0.5

vn 0 0.5000005 0.8660251
vn 0 -0.5000005 -0.8660251
vn -0.6546537 0.3779645 -0.6546535
vn 0.6546537 -0.3779645 0.6546535
vn 0.8660254 0.5 0
vn -0.8660254 -0.5 0
vn 0.6546537 0.3779645 -0.6546537
vn -0.6546537 -0.3779645 0.6546537
vn 0.6546536 0.3779645 0.6546537
vn -0.6546536 -0.3779645 -0.6546537
vn -0.6546537 0.3779645 0.6546537
vn 0.6546537 -0.3779645 -0.6546537
vn 0 0.5 -0.8660254
vn 0 -0.5 0.8660254
vn 0 1 0
vn -0.8660251 0.5000005 0
vn 0.8660251 -0.5000005 0
vn 0 0 1
vn 1 0 0
vn 0 -1 0
vn 0 0 -1
vn -1 0 0

vt 9.842525 -1.969122
vt 8.159919 -1.913748
vt 11.52513 -1.913748
vt 13.20045 -1.747857
vt 6.484595 -1.747857
vt 14.86125 -1.472174
vt 4.823804 -1.472175
vt 16.50031 -1.087875
vt 3.184733 -1.087877
vt 18.11057 -0.5966609
vt 1.574477 -0.5966626
vt 19.68504 -0.0006156522
vt -1.574468 0.5954273
vt 19.68504 7.205211
vt -3.184724 1.086641
vt -4.823794 1.47094
vt -6.484586 1.746622
vt -8.159909 1.912513
vt -9.842515 1.967886
vt -19.68504 7.205207
vt -11.52512 1.912512
vt -13.20044 1.746621
vt -14.86124 1.470939
vt -16.50031 1.08664
vt -18.11056 0.5954255
vt -19.68503 -0.0006196984
vt 2.547643 0.9622746
vt -2.547647 0.9622746
vt -1.520817E-06 7.702709
vt 19.68504 -0.0006022353
vt 18.11057 -0.5966414
vt 19.68504 7.205225
vt -19.68504 7.205225
vt 16.50031 -1.087867
vt 14.86124 -1.472154
vt 13.20045 -1.747841
vt 11.52513 -1.913727
vt 9.84252 -1.969107
vt 8.159913 -1.913727
vt 6.484591 -1.747841
vt 4.823799 -1.472154
vt 3.184728 -1.087867
vt -1.574472 0.5954369
vt 1.574473 -0.5966415
vt -3.184728 1.086662
vt -4.823799 1.47095
vt -6.484591 1.746637
vt -8.159913 1.912524
vt -9.84252 1.967903
vt -11.52513 1.912524
vt -13.20045 1.746637
vt -14.86124 1.47095
vt -16.50031 1.086662
vt -18.11056 0.5954369
vt -19.68504 -0.0006023513
vt 1.37307E-07 -0.0006022933
vt 2.547645 0.962274
vt -2.547645 0.962274
vt -3.104308E-10 7.702708
vt 2.547646 0.9622746
vt -2.547643 0.9622746
vt 1.313689E-06 7.702708
vt -2.547644 0.9622753
vt -1.598721E-14 7.702709
vt 2.547644 0.9622753
vt 13.20045 -1.747841
vt 14.86124 -1.472154
vt 18.11056 -0.5966414
vt 1.574473 -0.5966414
vt 19.68504 -0.0006021941
vt -9.84252 1.967903
vt -13.20045 1.746637
vt -16.50031 1.086662
vt -18.11057 0.5954369
vt -19.68504 -0.0006023126
vt -19.68504 19.68504
vt 19.68504 19.68504
vt -19.68504 -19.68504
vt 19.68504 -19.68504
vt -18.11056 0.5954255
vt -16.50031 1.08664
vt -13.20044 1.746621
vt 13.20045 -1.747857
vt 16.50032 -1.087875
vt 18.11057 -0.5966609
vt 19.68504 0
vt -19.68504 0
vt 19.68504 -9.208634E-12
vt -19.68504 -9.208634E-12
vt 19.68504 9.919177E-12
vt -19.68504 9.919177E-12

usemtl snow

f 3/3/1 2/2/1 1/1/1
f 2/2/1 3/3/1 4/4/1
f 2/2/1 4/4/1 5/5/1
f 5/5/1 4/4/1 6/6/1
f 5/5/1 6/6/1 7/7/1
f 7/7/1 6/6/1 8/8/1
f 7/7/1 8/8/1 9/9/1
f 9/9/1 8/8/1 10/10/1
f 9/9/1 10/10/1 11/11/1
f 11/11/1 10/10/1 12/12/1
f 11/11/1 12/12/1 13/13/1
f 13/13/1 12/12/1 14/14/1
f 13/13/1 14/14/1 15/15/1
f 15/15/1 14/14/1 16/16/1
f 16/16/1 14/14/1 17/17/1
f 17/17/1 14/14/1 18/18/1
f 18/18/1 14/14/1 19/19/1
f 20/20/1 19/19/1 14/14/1
f 20/20/1 21/21/1 19/19/1
f 20/20/1 22/22/1 21/21/1
f 20/20/1 23/23/1 22/22/1
f 20/20/1 24/24/1 23/23/1
f 20/20/1 25/25/1 24/24/1
f 25/25/1 20/20/1 26/26/1
f 1/1/2 2/2/2 3/3/2
f 4/4/2 3/3/2 2/2/2
f 5/5/2 4/4/2 2/2/2
f 6/6/2 4/4/2 5/5/2
f 7/7/2 6/6/2 5/5/2
f 8/8/2 6/6/2 7/7/2
f 9/9/2 8/8/2 7/7/2
f 10/10/2 8/8/2 9/9/2
f 11/11/2 10/10/2 9/9/2
f 12/12/2 10/10/2 11/11/2
f 13/13/2 12/12/2 11/11/2
f 14/14/2 12/12/2 13/13/2
f 15/15/2 14/14/2 13/13/2
f 16/16/2 14/14/2 15/15/2
f 17/17/2 14/14/2 16/16/2
f 18/18/2 14/14/2 17/17/2
f 19/19/2 14/14/2 18/18/2
f 14/14/2 19/19/2 20/20/2
f 19/19/2 21/21/2 20/20/2
f 21/21/2 22/22/2 20/20/2
f 22/22/2 23/23/2 20/20/2
f 23/23/2 24/24/2 20/20/2
f 24/24/2 25/25/2 20/20/2
f 26/26/2 20/20/2 25/25/2
f 29/29/3 28/28/3 27/27/3
f 27/27/4 28/28/4 29/29/4
f 32/32/5 31/31/5 30/30/5
f 31/31/5 32/32/5 14/33/5
f 31/31/5 14/33/5 33/34/5
f 33/34/5 14/33/5 34/35/5
f 34/35/5 14/33/5 35/36/5
f 35/36/5 14/33/5 36/37/5
f 36/37/5 14/33/5 37/38/5
f 37/38/5 14/33/5 38/39/5
f 38/39/5 14/33/5 39/40/5
f 39/40/5 14/33/5 40/41/5
f 40/41/5 14/33/5 41/42/5
f 41/42/5 14/33/5 42/43/5
f 41/42/5 42/43/5 43/44/5
f 42/43/5 14/33/5 44/45/5
f 44/45/5 14/33/5 45/46/5
f 45/46/5 14/33/5 46/47/5
f 46/47/5 14/33/5 47/48/5
f 47/48/5 14/33/5 48/49/5
f 48/49/5 14/33/5 49/50/5
f 49/50/5 14/33/5 50/51/5
f 50/51/5 14/33/5 51/52/5
f 51/52/5 14/33/5 52/53/5
f 52/53/5 14/33/5 53/54/5
f 53/54/5 14/33/5 54/55/5
f 30/30/6 31/31/6 32/32/6
f 14/33/6 32/32/6 31/31/6
f 33/34/6 14/33/6 31/31/6
f 34/35/6 14/33/6 33/34/6
f 35/36/6 14/33/6 34/35/6
f 36/37/6 14/33/6 35/36/6
f 37/38/6 14/33/6 36/37/6
f 38/39/6 14/33/6 37/38/6
f 39/40/6 14/33/6 38/39/6
f 40/41/6 14/33/6 39/40/6
f 41/42/6 14/33/6 40/41/6
f 42/43/6 14/33/6 41/42/6
f 43/44/6 42/43/6 41/42/6
f 55/56/6 42/43/6 43/44/6
f 44/45/6 14/33/6 42/43/6
f 45/46/6 14/33/6 44/45/6
f 46/47/6 14/33/6 45/46/6
f 47/48/6 14/33/6 46/47/6
f 48/49/6 14/33/6 47/48/6
f 49/50/6 14/33/6 48/49/6
f 50/51/6 14/33/6 49/50/6
f 51/52/6 14/33/6 50/51/6
f 52/53/6 14/33/6 51/52/6
f 53/54/6 14/33/6 52/53/6
f 54/55/6 14/33/6 53/54/6
f 43/44/5 42/43/5 55/56/5
f 32/59/7 30/58/7 56/57/7
f 56/57/8 30/58/8 32/59/8
f 14/62/9 12/61/9 54/60/9
f 54/60/10 12/61/10 14/62/10
f 26/65/11 20/64/11 57/63/11
f 57/63/12 20/64/12 26/65/12
f 60/37/13 59/39/13 58/38/13
f 59/39/13 60/37/13 61/66/13
f 59/39/13 61/66/13 62/40/13
f 62/40/13 61/66/13 63/67/13
f 62/40/13 63/67/13 64/41/13
f 64/41/13 63/67/13 65/34/13
f 64/41/13 65/34/13 66/42/13
f 66/42/13 65/34/13 67/68/13
f 66/42/13 67/68/13 68/69/13
f 68/69/13 67/68/13 28/70/13
f 68/69/13 28/70/13 69/43/13
f 69/43/13 28/70/13 29/32/13
f 69/43/13 29/32/13 70/45/13
f 70/45/13 29/32/13 71/46/13
f 71/46/13 29/32/13 72/47/13
f 72/47/13 29/32/13 73/48/13
f 73/48/13 29/32/13 74/71/13
f 32/33/13 74/71/13 29/32/13
f 32/33/13 75/50/13 74/71/13
f 32/33/13 76/72/13 75/50/13
f 32/33/13 77/52/13 76/72/13
f 32/33/13 78/73/13 77/52/13
f 32/33/13 79/74/13 78/73/13
f 79/74/13 32/33/13 56/75/13
f 58/38/14 59/39/14 60/37/14
f 61/66/14 60/37/14 59/39/14
f 62/40/14 61/66/14 59/39/14
f 63/67/14 61/66/14 62/40/14
f 64/41/14 63/67/14 62/40/14
f 65/34/14 63/67/14 64/41/14
f 66/42/14 65/34/14 64/41/14
f 67/68/14 65/34/14 66/42/14
f 68/69/14 67/68/14 66/42/14
f 28/70/14 67/68/14 68/69/14
f 69/43/14 28/70/14 68/69/14
f 29/32/14 28/70/14 69/43/14
f 70/45/14 29/32/14 69/43/14
f 71/46/14 29/32/14 70/45/14
f 72/47/14 29/32/14 71/46/14
f 73/48/14 29/32/14 72/47/14
f 74/71/14 29/32/14 73/48/14
f 29/32/14 74/71/14 32/33/14
f 74/71/14 75/50/14 32/33/14
f 75/50/14 76/72/14 32/33/14
f 76/72/14 77/52/14 32/33/14
f 77/52/14 78/73/14 32/33/14
f 78/73/14 79/74/14 32/33/14
f 56/75/14 32/33/14 79/74/14
f 32/78/15 20/77/15 14/76/15
f 20/77/15 32/78/15 29/79/15
f 80/80/16 29/20/16 27/26/16
f 29/20/16 80/80/16 81/81/16
f 29/20/16 81/81/16 82/23/16
f 29/20/16 82/23/16 83/82/16
f 29/20/16 83/82/16 20/14/16
f 20/14/16 83/82/16 84/21/16
f 20/14/16 84/21/16 85/19/16
f 20/14/16 85/19/16 86/18/16
f 20/14/16 86/18/16 87/17/16
f 20/14/16 87/17/16 88/16/16
f 20/14/16 88/16/16 89/15/16
f 20/14/16 89/15/16 90/13/16
f 20/14/16 90/13/16 91/11/16
f 20/14/16 91/11/16 92/9/16
f 20/14/16 92/9/16 93/7/16
f 20/14/16 93/7/16 94/5/16
f 20/14/16 94/5/16 95/2/16
f 20/14/16 95/2/16 96/1/16
f 20/14/16 96/1/16 97/3/16
f 20/14/16 97/3/16 98/83/16
f 20/14/16 98/83/16 99/6/16
f 20/14/16 99/6/16 100/84/16
f 20/14/16 100/84/16 101/85/16
f 20/14/16 101/85/16 57/12/16
f 27/26/17 29/20/17 80/80/17
f 81/81/17 80/80/17 29/20/17
f 82/23/17 81/81/17 29/20/17
f 83/82/17 82/23/17 29/20/17
f 20/14/17 83/82/17 29/20/17
f 84/21/17 83/82/17 20/14/17
f 85/19/17 84/21/17 20/14/17
f 86/18/17 85/19/17 20/14/17
f 87/17/17 86/18/17 20/14/17
f 88/16/17 87/17/17 20/14/17
f 89/15/17 88/16/17 20/14/17
f 90/13/17 89/15/17 20/14/17
f 91/11/17 90/13/17 20/14/17
f 92/9/17 91/11/17 20/14/17
f 93/7/17 92/9/17 20/14/17
f 94/5/17 93/7/17 20/14/17
f 95/2/17 94/5/17 20/14/17
f 96/1/17 95/2/17 20/14/17
f 97/3/17 96/1/17 20/14/17
f 98/83/17 97/3/17 20/14/17
f 99/6/17 98/83/17 20/14/17
f 100/84/17 99/6/17 20/14/17
f 101/85/17 100/84/17 20/14/17
f 57/12/17 101/85/17 20/14/17

usemtl dirt

f 14/77/18 103/87/18 102/86/18
f 103/87/18 14/77/18 20/76/18
f 14/76/19 104/88/19 32/77/19
f 104/88/19 14/76/19 102/89/19
f 103/76/20 104/79/20 102/77/20
f 104/79/20 103/76/20 105/78/20
f 29/77/21 104/91/21 105/90/21
f 104/91/21 29/77/21 32/76/21
f 103/86/22 29/76/22 105/87/22
f 29/76/22 103/86/22 20/77/22

