# Created by Kenney (www.kenney.nl)

mtllib chest.mtl

g chest

v -0.15 0 -0.2
v 0.15 0 -0.2
v -0.15 0.25 -0.2
v 0.15 0.25 -0.2
v 0.15 0.05 -0.15
v 0.15 0.25 -0.15
v 0.15 0.05 0.15
v 0.15 0.25 0.15
v -0.15 0 0.2
v 0.04999995 0.15 0.2
v 0.15 0 0.2
v 0.15 0.25 0.2
v 0.04999995 0.25 0.2
v -0.05000001 0.15 0.2
v -0.15 0.25 0.2
v -0.05000001 0.25 0.2
v -0.15 0.05 -0.15
v -0.15 0.25 -0.15
v -0.15 0.25 0.15
v -0.15 0.05 0.15
v -0.2 0 -0.15
v -0.2 0.25 -0.15
v -0.2 0 0.15
v -0.2 0.25 0.15
v 0.2 0.25 -0.15
v 0.2 0.25 0.15
v 0.2 0 -0.15
v 0.2 0 0.15
v -0.15 0 0.15
v -0.15 0 -0.15
v 0.15 0 -0.15
v 0.15 0 0.15
v -0.25 0 -0.25
v -0.15 0 -0.25
v -0.25 0.25 -0.25
v -0.15 0.25 -0.25
v -0.15 0.25 0.25
v -0.15 0 0.25
v -0.25 0 -0.15
v -0.25 0.25 -0.15
v 0.15 0 0.25
v 0.15 0.25 0.25
v -0.25 0 0.15
v -0.25 0.25 0.15
v -0.25 0 0.25
v -0.25 0.25 0.25
v 0.25 0 -0.15
v 0.25 0 -0.25
v 0.15 0 -0.25
v 0.04999995 0.25 0.225
v 0.04999995 0.15 0.225
v 0.15 0.25 -0.25
v 0.25 0.25 -0.25
v 0.25 0 0.25
v 0.25 0.25 0.25
v -0.05000001 0.15 0.225
v -0.05000001 0.25 0.225
v 0.25 0.25 -0.15
v 0.25 0 0.15
v 0.25 0.25 0.15

vn 0 0 -1
vn -1 0 0
vn 0 0 1
vn 1 0 0
vn 0 1 0
vn 0 -1 0

vt 5.905512 0
vt -5.905512 0
vt 5.905512 9.84252
vt -5.905512 9.84252
vt -5.905512 1.968504
vt 5.905512 1.968504
vt 1.968504 5.905512
vt 1.968504 9.84252
vt -1.968504 5.905512
vt -1.968504 9.84252
vt -5.905512 -5.905512
vt -5.905512 5.905512
vt 5.905512 -5.905512
vt 5.905512 5.905512
vt -5.905512 -7.874016
vt 5.905512 -7.874016
vt 7.874016 -5.905512
vt 7.874016 5.905512
vt -7.874016 -5.905512
vt -7.874016 5.905512
vt -5.905512 7.874016
vt -1.968504 7.874016
vt 1.968504 7.874016
vt 5.905512 7.874016
vt 9.84252 0
vt 9.84252 9.84252
vt -7.874016 9.84252
vt -7.874016 0
vt -9.84252 9.84252
vt -9.84252 0
vt 7.874016 0
vt 7.874016 9.84252
vt 9.84252 -5.905512
vt 9.84252 -9.84252
vt 5.905512 -9.84252
vt -8.858268 9.84252
vt -8.858268 5.905512
vt -5.905512 -9.84252
vt -9.84252 -9.84252
vt -9.84252 -5.905512
vt 8.858268 5.905512
vt 8.858268 9.84252
vt 1.968504 8.858268
vt -1.968504 8.858268
vt 9.84252 5.905512
vt -9.84252 5.905512

usemtl wood

f 3/3/1 2/2/1 1/1/1
f 2/2/1 3/3/1 4/4/1
f 7/6/2 6/4/2 5/5/2
f 6/4/2 7/6/2 8/3/2
f 11/1/3 10/7/3 9/2/3
f 10/7/3 11/1/3 12/3/3
f 10/7/3 12/3/3 13/8/3
f 14/9/3 9/2/3 10/7/3
f 9/2/3 14/9/3 15/4/3
f 15/4/3 14/9/3 16/10/3
f 6/3/3 17/5/3 5/6/3
f 17/5/3 6/3/3 18/4/3
f 19/4/4 17/6/4 18/3/4
f 17/6/4 19/4/4 20/5/4
f 23/1/2 22/4/2 21/2/2
f 22/4/2 23/1/2 24/3/2
f 19/3/1 7/5/1 20/6/1
f 7/5/1 19/3/1 8/4/1
f 17/13/5 7/12/5 5/11/5
f 7/12/5 17/13/5 20/14/5
f 3/16/5 6/11/5 4/15/5
f 6/11/5 3/16/5 18/13/5
f 22/17/5 19/14/5 18/13/5
f 19/14/5 22/17/5 24/18/5
f 6/11/5 26/20/5 25/19/5
f 26/20/5 6/11/5 8/12/5
f 19/14/5 12/21/5 8/12/5
f 12/21/5 19/14/5 13/22/5
f 13/22/5 19/14/5 16/23/5
f 16/23/5 19/14/5 15/24/5
f 26/4/4 27/1/4 25/3/4
f 27/1/4 26/4/4 28/2/4
f 23/20/6 30/11/6 29/12/6
f 30/11/6 23/20/6 21/19/6
f 1/15/6 29/12/6 30/11/6
f 1/15/6 9/21/6 29/12/6
f 2/16/6 9/21/6 1/15/6
f 31/13/6 9/21/6 2/16/6
f 32/14/6 9/21/6 31/13/6
f 9/21/6 32/14/6 11/24/6
f 27/17/6 32/14/6 31/13/6
f 32/14/6 27/17/6 28/18/6

usemtl metal

f 35/26/1 34/1/1 33/25/1
f 34/1/1 35/26/1 36/3/1
f 37/29/4 9/28/4 15/27/4
f 9/28/4 37/29/4 38/30/4
f 22/27/3 39/30/3 21/28/3
f 39/30/3 22/27/3 40/29/3
f 41/25/2 12/32/2 11/31/2
f 12/32/2 41/25/2 42/26/2
f 44/26/1 23/31/1 43/25/1
f 23/31/1 44/26/1 24/32/1
f 45/25/2 44/3/2 43/1/2
f 44/3/2 45/25/2 46/26/2
f 3/32/4 34/25/4 36/26/4
f 34/25/4 3/32/4 1/31/4
f 27/17/6 48/34/6 47/33/6
f 48/34/6 27/17/6 49/35/6
f 49/35/6 27/17/6 31/13/6
f 49/35/6 31/13/6 2/16/6
f 50/36/4 10/20/4 13/27/4
f 10/20/4 50/36/4 51/37/4
f 52/4/1 48/30/1 49/2/1
f 48/30/1 52/4/1 53/29/1
f 39/2/2 35/29/2 33/30/2
f 35/29/2 39/2/2 40/4/2
f 55/26/3 41/1/3 54/25/3
f 41/1/3 55/26/3 42/3/3
f 2/28/2 52/29/2 49/30/2
f 52/29/2 2/28/2 4/27/2
f 50/8/3 56/9/3 51/7/3
f 56/9/3 50/8/3 57/10/3
f 21/19/6 1/15/6 30/11/6
f 1/15/6 21/19/6 34/38/6
f 34/38/6 21/19/6 33/39/6
f 33/39/6 21/19/6 39/40/6
f 56/41/2 16/32/2 14/18/2
f 16/32/2 56/41/2 57/42/2
f 52/38/5 58/40/5 53/39/5
f 58/40/5 52/38/5 25/19/5
f 25/19/5 52/38/5 6/11/5
f 6/11/5 52/38/5 4/15/5
f 56/44/6 10/23/6 51/43/6
f 10/23/6 56/44/6 14/22/6
f 41/3/6 59/45/6 54/26/6
f 59/45/6 41/3/6 28/18/6
f 28/18/6 41/3/6 32/14/6
f 32/14/6 41/3/6 11/24/6
f 35/34/5 3/16/5 36/35/5
f 3/16/5 35/34/5 18/13/5
f 18/13/5 35/34/5 22/17/5
f 22/17/5 35/34/5 40/33/5
f 58/3/4 48/25/4 53/26/4
f 48/25/4 58/3/4 47/1/4
f 16/23/5 50/44/5 13/22/5
f 50/44/5 16/23/5 57/43/5
f 37/4/3 45/30/3 38/2/3
f 45/30/3 37/4/3 46/29/3
f 26/20/5 55/29/5 60/46/5
f 55/29/5 26/20/5 42/4/5
f 42/4/5 26/20/5 8/12/5
f 42/4/5 8/12/5 12/21/5
f 26/27/1 59/30/1 28/28/1
f 59/30/1 26/27/1 60/29/1
f 58/26/3 27/31/3 47/25/3
f 27/31/3 58/26/3 25/32/3
f 45/29/6 9/21/6 38/4/6
f 9/21/6 45/29/6 29/12/6
f 29/12/6 45/29/6 23/20/6
f 23/20/6 45/29/6 43/46/6
f 24/18/5 15/24/5 19/14/5
f 15/24/5 24/18/5 37/3/5
f 37/3/5 24/18/5 46/26/5
f 46/26/5 24/18/5 44/45/5
f 55/29/4 59/2/4 60/4/4
f 59/2/4 55/29/4 54/30/4

g lid

v 0.15 0.4914815 -0.06470478
v 0.15 0.5 0
v -0.15 0.4914815 -0.06470478
v -0.15 0.5 0
v 0.15 0.4267767 -0.1767767
v 0.15 0.4665064 -0.125
v -0.15 0.4267767 -0.1767767
v -0.15 0.4665064 -0.125
v 0.15 0.4914815 0.06470478
v 0.15 0.4665064 0.125
v -0.15 0.4914815 0.06470478
v -0.15 0.4665064 0.125
v -0.15 0.3147048 -0.2414814
v 0.15 0.3147048 -0.2414814
v -0.15 0.375 -0.2165064
v 0.15 0.375 -0.2165064
v 0.2 0.2888229 -0.1448889
v 0.2 0.325 -0.1299038
v 0.2 0.356066 -0.106066
v 0.2 0.3799038 -0.07499999
v 0.2 0.3948889 -0.03882283
v 0.2 0.4 0
v 0.2 0.3948889 0.03882286
v 0.2 0.3799038 0.07499999
v 0.2 0.356066 0.106066
v 0.2 0.325 0.1299038
v 0.2 0.2888229 0.1448889
v -0.2 0.2888229 -0.1448889
v -0.2 0.325 -0.1299038
v -0.2 0.356066 -0.106066
v -0.2 0.3799038 -0.07499999
v -0.2 0.3948889 -0.03882283
v -0.2 0.4 0
v -0.2 0.3948889 0.03882286
v -0.2 0.3799038 0.07499999
v -0.2 0.356066 0.106066
v -0.2 0.325 0.1299038
v -0.2 0.2888229 0.1448889
v 0.15 0.3147048 0.2414814
v -0.15 0.3147048 0.2414814
v 0.15 0.375 0.2165064
v -0.15 0.375 0.2165064
v 0.15 0.4267767 0.1767767
v -0.15 0.4267767 0.1767767
v 0.25 0.2888229 -0.1448889
v 0.25 0.3799038 0.07499999
v 0.25 0.3948889 0.03882286
v 0.25 0.3799038 -0.07499999
v 0.25 0.356066 -0.106066
v 0.25 0.2888229 0.1448889
v 0.25 0.325 0.1299038
v 0.25 0.4 0
v 0.25 0.3948889 -0.03882283
v 0.25 0.325 -0.1299038
v 0.25 0.356066 0.106066
v -0.25 0.2888229 0.1448889
v -0.25 0.325 0.1299038
v -0.25 0.356066 0.106066
v -0.25 0.3799038 0.07499999
v -0.25 0.3799038 -0.07499999
v -0.25 0.356066 -0.106066
v -0.25 0.2888229 -0.1448889
v -0.25 0.325 -0.1299038
v -0.25 0.3948889 0.03882286
v -0.25 0.4 0
v -0.25 0.3948889 -0.03882283
v 0.25 0.4914815 -0.06470478
v 0.25 0.5 0
v 0.25 0.4914815 0.06470478
v 0.25 0.4665064 0.125
v 0.25 0.4267767 -0.1767767
v 0.25 0.4665064 -0.125
v 0.25 0.3147048 0.2414814
v 0.25 0.375 0.2165064
v 0.25 0.4267767 0.1767767
v 0.25 0.3147048 -0.2414814
v 0.25 0.375 -0.2165064
v -0.25 0.4914815 0.06470478
v -0.25 0.4665064 0.125
v -0.25 0.5 0
v -0.25 0.3147048 0.2414814
v -0.25 0.375 0.2165064
v -0.25 0.4267767 0.1767767
v -0.25 0.3147048 -0.2414814
v -0.25 0.375 -0.2165064
v -0.25 0.4267767 -0.1767767
v -0.25 0.4665064 -0.125
v -0.25 0.4914815 -0.06470478

vn 0 0.9659258 -0.258819
vn 0 0.7071068 -0.7071068
vn 0 0.8660254 -0.5
vn 0 0.9659258 0.258819
vn 0 0.8660254 0.5
vn 0 0.258819 -0.9659258
vn 0 0.5 -0.8660254
vn 0 0.1305262 0.9914449
vn 0 0.258819 0.9659258
vn 0 0.5 0.8660254
vn 0 0.7071068 0.7071068
vn 0 0.1305262 -0.9914449
vn 0 -0.1305262 0.9914449
vn 0 -0.258819 0.9659258
vn 0 -0.8660254 -0.5
vn 0 -0.9659258 -0.258819
vn 0 -0.8660254 0.5
vn 0 -0.7071068 0.7071068
vn 0 -0.258819 -0.9659258
vn 0 -0.5 -0.8660254
vn 0 -0.9659258 0.258819
vn 0 -0.5 0.8660254
vn 0 -0.7071068 -0.7071068
vn 0 -0.1305262 -0.9914449

vt -5.905512 8.473609
vt -5.905512 11.04302
vt 5.905512 8.473609
vt 5.905512 11.04302
vt -5.905512 6.523889
vt -5.905512 9.093303
vt 5.905512 6.523889
vt 5.905512 9.093303
vt 5.905512 -7.808596
vt 5.905512 -10.37801
vt -5.905512 -7.808596
vt -5.905512 -10.37801
vt 5.905512 2.481863
vt -5.905512 2.481863
vt 5.905512 5.051276
vt -5.905512 5.051276
vt -3.937008 -1.776357E-15
vt -15.74803 0
vt -4.138233 1.528459
vt -4.728197 2.952756
vt -5.666692 4.175828
vt -6.889764 5.114323
vt -8.314061 5.704287
vt -11.37098 5.704287
vt -12.79528 5.114323
vt -14.01835 4.175828
vt -14.95684 2.952756
vt -15.54681 1.528459
vt 3.937008 0
vt 4.138233 1.528459
vt 15.74803 -1.776357E-15
vt 4.728197 2.952756
vt 5.666692 4.175828
vt 6.889764 5.114323
vt 8.314061 5.704287
vt 11.37098 5.704287
vt 12.79528 5.114323
vt 14.01835 4.175828
vt 14.95684 2.952756
vt 15.54681 1.528459
vt 5.905512 -2.569413
vt -5.905512 -2.569413
vt 5.905512 -7.460699E-14
vt -5.905512 -7.460699E-14
vt 5.905512 -7.276453
vt -5.905512 -7.276453
vt 5.905512 -4.70704
vt -5.905512 -4.70704
vt 5.905512 2.569413
vt -5.905512 2.569413
vt 5.905512 -8.473609
vt 5.905512 -11.04302
vt -5.905512 -8.473609
vt -5.905512 -11.04302
vt 5.905512 -6.523889
vt 5.905512 -9.093303
vt -5.905512 -6.523889
vt -5.905512 -9.093303
vt 5.905512 4.70704
vt -5.905512 4.70704
vt 5.905512 7.276453
vt -5.905512 7.276453
vt -5.905512 7.808596
vt -5.905512 10.37801
vt 5.905512 7.808596
vt 5.905512 10.37801
vt 5.905512 -5.051276
vt -5.905512 -5.051276
vt 5.905512 -2.481863
vt -5.905512 -2.481863
vt 7.874016 15.74803
vt 7.874016 3.937008
vt -7.874016 15.74803
vt -7.874016 3.937008
vt 9.84252 0.5138826
vt 7.874016 0.5138826
vt 9.84252 2.055531
vt 7.874016 2.055531
vt -9.84252 -9.864126
vt -9.84252 -8.322478
vt -7.874016 -9.864126
vt -7.874016 -8.322478
vt 9.84252 8.57942
vt 9.84252 7.037772
vt 7.874016 8.57942
vt 7.874016 7.037772
vt -7.874016 -4.537393
vt -9.84252 -4.537393
vt -7.874016 -2.995745
vt -9.84252 -2.995745
vt 9.84252 10.52914
vt 9.84252 8.987492
vt 7.874016 10.52914
vt 7.874016 8.987492
vt 9.84252 2.995745
vt 7.874016 2.995745
vt 9.84252 4.537393
vt 7.874016 4.537393
vt -9.84252 -8.57942
vt -9.84252 -7.037772
vt -7.874016 -8.57942
vt -7.874016 -7.037772
vt 9.84252 5.220922
vt 7.874016 5.220922
vt 9.84252 6.76257
vt 7.874016 6.76257
vt -9.84252 -10.52914
vt -9.84252 -8.987492
vt -7.874016 -10.52914
vt -7.874016 -8.987492
vt -7.874016 -6.76257
vt -9.84252 -6.76257
vt -7.874016 -5.220922
vt -9.84252 -5.220922
vt 9.84252 9.864126
vt 9.84252 8.322478
vt 7.874016 9.864126
vt 7.874016 8.322478
vt -7.874016 -2.055531
vt -9.84252 -2.055531
vt -7.874016 -0.5138826
vt -9.84252 -0.5138826
vt 9.84252 -2.055531
vt 7.874016 -2.055531
vt 9.84252 -0.5138826
vt 7.874016 -0.5138826
vt 9.84252 -4.537393
vt 7.874016 -4.537393
vt 9.84252 -2.995745
vt 7.874016 -2.995745
vt 7.874016 -8.57942
vt 7.874016 -7.037772
vt 9.84252 -8.57942
vt 9.84252 -7.037772
vt -7.874016 8.57942
vt -7.874016 7.037772
vt -9.84252 8.57942
vt -9.84252 7.037772
vt -7.874016 2.995745
vt -9.84252 2.995745
vt -7.874016 4.537393
vt -9.84252 4.537393
vt 7.874016 -9.864126
vt 7.874016 -8.322478
vt 9.84252 -9.864126
vt 9.84252 -8.322478
vt 7.874016 -10.52914
vt 7.874016 -8.987492
vt 9.84252 -10.52914
vt 9.84252 -8.987492
vt 9.84252 -6.76257
vt 7.874016 -6.76257
vt 9.84252 -5.220922
vt 7.874016 -5.220922
vt -7.874016 5.220922
vt -9.84252 5.220922
vt -7.874016 6.76257
vt -9.84252 6.76257
vt -7.874016 9.864126
vt -7.874016 8.322478
vt -9.84252 9.864126
vt -9.84252 8.322478
vt -7.874016 0.5138826
vt -9.84252 0.5138826
vt -7.874016 2.055531
vt -9.84252 2.055531
vt -7.874016 10.52914
vt -7.874016 8.987492
vt -9.84252 10.52914
vt -9.84252 8.987492
vt -9.84252 8.473609
vt -9.84252 11.04302
vt 9.84252 -7.808596
vt 9.84252 -10.37801
vt -9.84252 6.523889
vt -9.84252 9.093303
vt 9.84252 -5.051276
vt 9.84252 -2.481863
vt 9.84252 -6.523889
vt 9.84252 -9.093303
vt -9.84252 7.808596
vt -9.84252 10.37801
vt -9.84252 2.569413
vt -9.84252 4.70704
vt -9.84252 7.276453
vt 9.84252 -2.569413
vt 9.84252 -7.460699E-14
vt 9.84252 -8.473609
vt 9.84252 -11.04302
vt 9.84252 -7.276453
vt 9.84252 -4.70704
vt -9.84252 2.481863
vt -9.84252 5.051276
vt -9.84252 -7.808596
vt -9.84252 -10.37801
vt -9.84252 -8.473609
vt -9.84252 -11.04302
vt -9.84252 -5.051276
vt -9.84252 -2.481863
vt -9.84252 -7.276453
vt -9.84252 -4.70704
vt -9.84252 -6.523889
vt -9.84252 -9.093303
vt -9.84252 -2.569413
vt -9.84252 -7.460699E-14
vt 9.84252 19.68504
vt 9.84252 15.74803
vt 5.905512 19.68504
vt -5.905512 19.68504
vt -9.84252 19.68504
vt -9.84252 15.74803
vt 0 0
vt 0.3353757 2.547431
vt 1.318648 4.92126
vt 2.882807 6.959713
vt 4.92126 8.523872
vt 7.295088 9.507144
vt 12.38995 9.507144
vt 14.76378 8.523872
vt 16.80223 6.959713
vt 19.68504 0
vt 18.36639 4.92126
vt 19.34966 2.547431
vt 9.84252 8.473609
vt 9.84252 11.04302
vt 9.84252 7.808596
vt 9.84252 10.37801
vt 9.84252 6.523889
vt 9.84252 9.093303
vt 9.84252 4.70704
vt 9.84252 7.276453
vt 9.84252 2.481863
vt 9.84252 5.051276
vt 9.84252 2.569413
vt 0 -1.655198E-29
vt -0.3353757 2.547431
vt -1.318648 4.92126
vt -2.882807 6.959713
vt -4.92126 8.523872
vt -7.295088 9.507144
vt -12.38995 9.507144
vt -14.76378 8.523872
vt -16.80223 6.959713
vt -15.74803 -1.655198E-29
vt -19.68504 -1.655198E-29
vt -18.36639 4.92126
vt -19.34966 2.547431
vt 9.84252 3.937008
vt 9.84252 -1.202224E-31
vt 5.905512 -7.213344E-32
vt -5.905512 7.213344E-32
vt -9.84252 1.202224E-31
vt -9.84252 3.937008

usemtl wood

f 63/49/7 62/48/5 61/47/7
f 62/48/5 63/49/7 64/50/5
f 67/53/8 66/52/9 65/51/8
f 66/52/9 67/53/8 68/54/9
f 71/57/10 70/56/11 69/55/10
f 70/56/11 71/57/10 72/58/11
f 75/61/13 74/60/12 73/59/12
f 74/60/12 75/61/13 76/62/13
f 77/65/4 26/64/4 25/63/4
f 26/64/4 77/65/4 78/66/4
f 26/64/4 78/66/4 79/67/4
f 26/64/4 79/67/4 80/68/4
f 26/64/4 80/68/4 81/69/4
f 26/64/4 81/69/4 82/46/4
f 26/64/4 82/46/4 83/70/4
f 26/64/4 83/70/4 84/71/4
f 26/64/4 84/71/4 85/72/4
f 26/64/4 85/72/4 86/73/4
f 26/64/4 86/73/4 87/74/4
f 24/77/2 88/76/2 22/75/2
f 88/76/2 24/77/2 89/78/2
f 89/78/2 24/77/2 90/79/2
f 90/79/2 24/77/2 91/80/2
f 91/80/2 24/77/2 92/81/2
f 92/81/2 24/77/2 93/45/2
f 93/45/2 24/77/2 94/82/2
f 94/82/2 24/77/2 95/83/2
f 95/83/2 24/77/2 96/84/2
f 96/84/2 24/77/2 97/85/2
f 97/85/2 24/77/2 98/86/2
f 99/89/15 37/88/14 42/87/14
f 37/88/14 99/89/15 100/90/15
f 103/93/17 102/92/16 101/91/16
f 102/92/16 103/93/17 104/94/17
f 73/95/12 52/2/18 36/1/18
f 52/2/18 73/95/12 74/96/12
f 64/99/5 69/98/10 62/97/5
f 69/98/10 64/99/5 71/100/10
f 72/103/11 103/102/17 70/101/11
f 103/102/17 72/103/11 104/104/17
f 67/107/8 76/106/13 75/105/13
f 76/106/13 67/107/8 65/108/8
f 68/111/9 61/110/7 66/109/9
f 61/110/7 68/111/9 63/112/7
f 101/115/16 100/114/15 99/113/15
f 100/114/15 101/115/16 102/116/16
f 24/119/6 25/118/6 26/117/6
f 25/118/6 24/119/6 22/120/6

usemtl metal

f 105/123/20 25/122/19 58/121/19
f 25/122/19 105/123/20 77/124/20
f 84/127/21 107/126/22 106/125/21
f 107/126/22 84/127/21 83/128/22
f 80/131/23 109/130/24 108/129/23
f 109/130/24 80/131/23 79/132/24
f 86/135/26 110/134/25 87/133/25
f 110/134/25 86/135/26 111/136/26
f 82/139/6 113/138/27 112/137/6
f 113/138/27 82/139/6 81/140/27
f 114/143/28 77/142/20 105/141/20
f 77/142/20 114/143/28 78/144/28
f 85/147/29 106/146/21 115/145/29
f 106/146/21 85/147/29 84/148/21
f 109/151/24 78/150/28 114/149/28
f 78/150/28 109/151/24 79/152/24
f 83/155/22 112/154/6 107/153/22
f 112/154/6 83/155/22 82/156/6
f 85/159/29 111/158/26 86/157/26
f 111/158/26 85/159/29 115/160/29
f 81/163/27 108/162/23 113/161/27
f 108/162/23 81/163/27 80/164/23
f 87/167/25 60/166/30 26/165/30
f 60/166/30 87/167/25 110/168/25
f 116/171/25 24/170/30 44/169/30
f 24/170/30 116/171/25 98/172/25
f 117/175/26 98/174/25 116/173/25
f 98/174/25 117/175/26 97/176/26
f 118/179/29 95/178/21 96/177/29
f 95/178/21 118/179/29 119/180/21
f 120/183/23 90/182/24 91/181/23
f 90/182/24 120/183/23 121/184/24
f 89/187/28 122/186/20 88/185/20
f 122/186/20 89/187/28 123/188/28
f 119/191/21 94/190/22 95/189/21
f 94/190/22 119/191/21 124/192/22
f 124/195/22 93/194/6 94/193/22
f 93/194/6 124/195/22 125/196/6
f 118/199/29 97/198/26 117/197/26
f 97/198/26 118/199/29 96/200/29
f 90/203/24 123/202/28 89/201/28
f 123/202/28 90/203/24 121/204/24
f 126/207/27 91/206/23 92/205/27
f 91/206/23 126/207/27 120/208/23
f 88/211/20 40/210/19 22/209/19
f 40/210/19 88/211/20 122/212/20
f 125/215/6 92/214/27 93/213/6
f 92/214/27 125/215/6 126/216/27
f 61/47/7 128/218/5 127/217/7
f 128/218/5 61/47/7 62/48/5
f 69/55/10 130/220/11 129/219/10
f 130/220/11 69/55/10 70/56/11
f 65/51/8 132/222/9 131/221/8
f 132/222/9 65/51/8 66/52/9
f 134/224/16 99/113/15 133/223/15
f 99/113/15 134/224/16 101/115/16
f 70/101/11 135/226/17 130/225/11
f 135/226/17 70/101/11 103/102/17
f 66/109/9 127/228/7 132/227/9
f 127/228/7 66/109/9 61/110/7
f 74/96/12 53/30/18 52/2/18
f 53/30/18 74/96/12 136/229/12
f 65/108/8 137/230/13 76/106/13
f 137/230/13 65/108/8 131/231/8
f 133/233/15 42/87/14 55/232/14
f 42/87/14 133/233/15 99/89/15
f 62/97/5 129/235/10 128/234/5
f 129/235/10 62/97/5 69/98/10
f 135/237/17 101/91/16 134/236/16
f 101/91/16 135/237/17 103/93/17
f 76/62/13 136/238/12 74/60/12
f 136/238/12 76/62/13 137/239/13
f 138/240/10 72/58/11 71/57/10
f 72/58/11 138/240/10 139/241/11
f 140/242/5 71/100/10 64/99/5
f 71/100/10 140/242/5 138/243/10
f 102/116/16 141/244/15 100/114/15
f 141/244/15 102/116/16 142/245/16
f 104/94/17 142/246/16 102/92/16
f 142/246/16 104/94/17 143/247/17
f 139/248/11 104/104/17 72/103/11
f 104/104/17 139/248/11 143/249/17
f 100/90/15 46/250/14 37/88/14
f 46/250/14 100/90/15 141/251/15
f 42/254/6 60/253/6 55/252/6
f 60/253/6 42/254/6 26/117/6
f 26/117/6 42/254/6 24/119/6
f 24/119/6 42/254/6 37/255/6
f 24/119/6 37/255/6 46/256/6
f 24/119/6 46/256/6 44/257/6
f 40/75/2 144/259/2 35/258/2
f 144/259/2 40/75/2 145/260/2
f 145/260/2 40/75/2 146/261/2
f 146/261/2 40/75/2 147/262/2
f 147/262/2 40/75/2 122/76/2
f 147/262/2 122/76/2 123/78/2
f 147/262/2 123/78/2 121/79/2
f 147/262/2 121/79/2 148/263/2
f 148/263/2 121/79/2 120/80/2
f 148/263/2 120/80/2 126/81/2
f 148/263/2 126/81/2 140/26/2
f 140/26/2 126/81/2 125/45/2
f 140/26/2 125/45/2 124/82/2
f 140/26/2 124/82/2 138/264/2
f 138/264/2 124/82/2 119/83/2
f 138/264/2 119/83/2 139/265/2
f 139/265/2 119/83/2 118/84/2
f 139/265/2 118/84/2 117/85/2
f 139/265/2 117/85/2 143/266/2
f 143/266/2 117/85/2 116/86/2
f 143/266/2 116/86/2 44/77/2
f 143/266/2 44/77/2 46/267/2
f 143/266/2 46/267/2 142/268/2
f 142/268/2 46/267/2 141/269/2
f 148/270/7 64/50/5 63/49/7
f 64/50/5 148/270/7 140/271/5
f 147/272/9 63/112/7 68/111/9
f 63/112/7 147/272/9 148/273/7
f 146/274/8 68/54/9 67/53/8
f 68/54/9 146/274/8 147/275/9
f 146/277/8 75/105/13 145/276/13
f 75/105/13 146/277/8 67/107/8
f 145/279/13 73/59/12 144/278/12
f 73/59/12 145/279/13 75/61/13
f 144/280/12 36/1/18 35/25/18
f 36/1/18 144/280/12 73/95/12
f 136/282/4 58/63/4 53/281/4
f 58/63/4 136/282/4 137/283/4
f 58/63/4 137/283/4 131/284/4
f 58/63/4 131/284/4 132/285/4
f 58/63/4 132/285/4 105/65/4
f 105/65/4 132/285/4 114/66/4
f 114/66/4 132/285/4 109/67/4
f 109/67/4 132/285/4 127/286/4
f 109/67/4 127/286/4 108/68/4
f 108/68/4 127/286/4 113/69/4
f 113/69/4 127/286/4 128/29/4
f 113/69/4 128/29/4 112/46/4
f 112/46/4 128/29/4 129/287/4
f 112/46/4 129/287/4 107/70/4
f 107/70/4 129/287/4 106/71/4
f 106/71/4 129/287/4 130/288/4
f 106/71/4 130/288/4 115/72/4
f 115/72/4 130/288/4 111/73/4
f 111/73/4 130/288/4 135/289/4
f 111/73/4 135/289/4 110/74/4
f 110/74/4 135/289/4 60/290/4
f 60/290/4 135/289/4 55/291/4
f 55/291/4 135/289/4 134/292/4
f 55/291/4 134/292/4 133/293/4
f 25/118/6 53/295/6 58/294/6
f 53/295/6 25/118/6 52/296/6
f 52/296/6 25/118/6 22/120/6
f 52/296/6 22/120/6 36/297/6
f 36/297/6 22/120/6 35/298/6
f 35/298/6 22/120/6 40/299/6

