# Created by Kenney (www.kenney.nl)

mtllib rocks.mtl

g rocks

v -0.3265494 0 -0.06280828
v -0.2914927 0.061028 -0.04256827
v -0.3265494 0 0.1901917
v -0.256436 0.122056 0.02376974
v -0.256436 0.122056 0.1497118
v 0.09221184 0.26752 0.2750614
v 0.03914142 0.13376 0.3031066
v 0.0368942 0.26752 0.2431237
v -0.107445 0 -0.1893082
v -0.08289433 0 -0.1751338
v -0.107445 0.122056 -0.1083483
v -0.06344491 0.122056 -0.08294475
v -0.107445 0 0.3166917
v -0.107445 0.061028 0.2762117
v -0.1819405 0.122056 0.1927218
v 0.3154774 9.926282E-16 -0.2161521
v 0.3154774 9.926282E-16 0.01384795
v 0.2517378 0.4 -0.179352
v 0.2517378 0.4 -0.06485933
v 0.2836076 0.2 -0.004552066
v -0.03294951 0.122056 0.1927218
v -0.08289433 9.926282E-16 -0.2161521
v -0.01915479 0.4 -0.179352
v -0.01915479 0.4 -0.02295208
v -0.06344491 0.122056 -0.04219896
v -0.05102462 0.2 -0.004552066
v 0.2253494 6.316725E-16 0.3311521
v 0.02294946 6.316725E-16 0.3311521
v 0.1929654 0.26752 0.2750614
v 0.2273734 0.26752 0.09627205
v 0.2941654 0.13376 0.1558685
v 0.2273734 0.26752 0.2154648
v 0.1162916 9.926282E-16 -0.3311521
v 0.1162916 0.2 -0.2943521
v 0.1840147 0.4 -0.218452
v 0.05197573 0.26752 0.04249144
v -0.01348257 0.26752 0.1558685
v 0.01397276 0.122056 0.04731584
v -0.04870021 0.122056 0.1558685
v -0.01591063 5.196537E-16 0.2638444
v -0.0288046 0.122056 0.1903287
v 0.1162916 0.26752 0.07962424
v 0.1162916 0.4 0.05524796
v -0.0122112 0.122056 0.03219855
v 0.04856837 0.4 -0.218452
v 0.3265494 6.316725E-16 0.1558685
v 0.2154452 0.4 -0.001998425
v -0.2165139 0.122056 -0.04537725
v 0.2622848 8.780904E-16 0.04455876
v 0.1929654 0.26752 0.03667566
v 0.1906807 0.26752 0.03667566
v 0.1934586 0.263446 0.03582144

vn -0.8671175 0.4981037 0
vn -0.4673991 0.3551834 0.8095572
vn 0.4335594 0.4981036 -0.7509455
vn -0.4335587 0.4981038 0.7509456
vn 0.9875408 0.1573634 0
vn 0 0.8073171 0.5901179
vn -0.9875408 0.1573635 -3.103152E-07
vn 0 0.2052071 0.9787186
vn 0.8946625 0.4467426 0
vn 0.4937705 0.1573634 -0.8552353
vn -0.8475949 0.2052073 -0.4893595
vn 0.4335586 0.498104 0.7509456
vn -0.8475953 0.2052071 0.4893591
vn -0.4937702 0.1573634 0.8552355
vn -0.4937703 0.1573633 -0.8552355
vn 0.8475952 0.2052072 0.4893591
vn 0 1 0
vn -0.8153402 -0.141272 0.5614825
vn -0.5999553 0.7211596 -0.3463849
vn 0 -1 0
vn 0.83203 0.2774324 0.480372
vn 0 0.3548093 -0.9349387
vn 0.4937705 0.1573633 0.8552353
vn 0.8475952 0.2052072 -0.4893593
vn -0.4335587 0.4981039 -0.7509456
vn 0 0.2052089 -0.9787182

vt -2.472766 -6.403759
vt -1.675915 -3.63288
vt 7.487864 -6.403759
vt 0.9358169 -0.8620019
vt 5.894164 -0.8620019
vt 8.558607 7.159238
vt 7.30122 1.525775
vt 6.043831 7.159238
vt 7.389933 -2.161517
vt 6.273841 -2.161517
vt 5.79623 3.38024
vt 3.795957 3.38024
vt 2.5707 -6.431924
vt -7.389928 -6.431924
vt 1.77385 -3.661046
vt -5.796228 -0.8901669
vt -2.409615 -0.8901668
vt 8.509925 -1.954511
vt -0.5451936 -1.954512
vt 7.061105 13.9922
vt 2.553519 13.9922
vt 0.1792157 6.018847
vt -1.297224 -3.289769
vt -4.230118 -7.361289
vt -7.163012 -3.289769
vt -8.509922 -0.5135648
vt -7.061104 15.43315
vt -6.895032 -0.5135648
vt -0.9036238 15.43315
vt -3.265541 4.352416
vt -1.661375 4.352416
vt -0.1792139 7.459793
vt 8.872025 -2.675384
vt 0.9035212 -2.675384
vt 7.597064 8.085916
vt 1.541001 2.705266
vt 3.630387 8.085915
vt -3.790238 5.423729
vt -6.136553 -0.4624479
vt -8.482868 5.423729
vt 2.553724 -2.136994
vt -6.501393 -2.136994
vt 1.829314 5.836364
vt -5.052573 13.80972
vt -1.973833 13.80972
vt 0.4256223 10.84344
vt 5.579816 10.84344
vt 1.338203 4.991984
vt 6.273076 4.991984
vt -9.897479 -4.324888
vt -9.100629 -1.554009
vt -5.736266 -4.324888
vt -4.728734 1.216871
vt -4.917164 1.21687
vt 4.355746 3.73272
vt 5.049006 9.584177
vt 5.922329 3.73272
vt 9.015684 9.584177
vt 8.682702 -1.177122
vt 11.10507 4.203527
vt 11.74255 -1.177123
vt 5.532425 10.33408
vt 2.608583 10.33408
vt 5.052577 15.61563
vt -1.104904 15.61563
vt -1.829316 7.642276
vt 0.2174826 4.534899
vt 1.40782 4.534899
vt -1.428639 -1.41652
vt -10.48376 -1.41652
vt -2.877459 14.5302
vt -9.75935 6.556838
vt -5.9562 14.5302
vt 0.476244 2.466268
vt 1.113724 -2.914382
vt -2.870527 7.846918
vt -6.854782 -2.914382
vt -5.579822 7.846918
vt -9.910941 -7.061104
vt -9.910941 -2.553518
vt -7.244673 -8.600474
vt -8.482095 -0.07867914
vt -4.57841 2.175116
vt -1.912142 -8.600474
vt 0.754126 -0.903624
vt 0.754126 -7.061104
vt -0.5501063 1.862829
vt 1.917331 6.136553
vt 0.4807559 1.267659
vt 2.497831 -1.661376
vt 7.163012 7.587471
vt 1.297224 7.587471
vt 1.134039 7.493254
vt 4.230118 -4.265679
vt 2.497831 -3.265541
vt 8.524169 -1.786506
vt 10.09591 5.894164
vt 10.09591 0.9358169
vt -2.785006 4.914669
vt -1.286958 8.014419
vt 0.7713739 4.914669
vt 2.714931 -2.638883
vt 5.858399 -2.638883
vt 4.286667 -6.107106
vt 12.85628 6.136553
vt 10.32617 1.754282
vt 8.872024 13.03748
vt 4.57841 -13.03748
vt 12.42037 -8.509923
vt 12.42037 0.5451949
vt 0.9035197 13.03748
vt -3.263555 -8.509923
vt -0.6264016 10.38757
vt -3.263555 -6.895033
vt -4.230118 12.46818
vt -4.230118 -7.453081
vt -12.85628 7.487864
vt -12.85628 -2.472766
vt 7.166877 13.10282
vt 5.738025 4.907082
vt 4.30918 13.10282
vt -8.951709 3.790238
vt -8.951709 8.482868
vt -7.597063 1.443923
vt -7.597063 10.82919
vt -7.507114 1.443923
vt -3.630386 10.82919
vt -4.57841 3.134813
vt -2.046287 1.672892
vt -1.452528 9.571797
vt 0.530811 6.136553
vt -1.912142 11.67192
vt -4.57841 3.249957
vt -7.244673 11.67192
vt 8.065583 -1.051555
vt 5.890918 9.451191
vt 10.48376 -1.051555
vt 9.759346 6.921803
vt 7.385048 14.89516
vt 5.779389 9.613608
vt 2.397612 9.613608
vt 2.87746 14.89516
vt -5.02959 8.942302
vt -6.682337 -1.655116
vt -5.049006 9.106184
vt -7.758297 9.106184
vt -11.74255 -1.655116
vt -11.10507 3.725534
vt 9.897478 -4.268559
vt -0.06315123 -4.268559
vt 9.100628 -1.497681
vt 1.53055 1.273198
vt 6.488894 1.273199

usemtl rock

f 3/3/1 2/2/1 1/1/1
f 2/2/1 3/3/1 4/4/1
f 4/4/1 3/3/1 5/5/1
f 8/8/2 7/7/2 6/6/2
f 11/11/3 10/10/3 9/9/3
f 10/10/3 11/11/3 12/12/3
f 14/15/4 3/14/4 13/13/4
f 3/14/4 14/15/4 5/16/4
f 5/16/4 14/15/4 15/17/4
f 18/20/5 17/19/5 16/18/5
f 17/19/5 18/20/5 19/21/5
f 17/19/5 19/21/5 20/22/5
f 15/25/6 14/24/6 21/23/6
f 10/28/7 23/27/7 22/26/7
f 23/27/7 10/28/7 24/29/7
f 24/29/7 10/28/7 12/30/7
f 24/29/7 12/30/7 25/31/7
f 24/29/7 25/31/7 26/32/7
f 29/35/8 28/34/8 27/33/8
f 28/34/8 29/35/8 7/36/8
f 7/36/8 29/35/8 6/37/8
f 32/40/9 31/39/9 30/38/9
f 34/43/10 16/42/10 33/41/10
f 16/42/10 34/43/10 18/44/10
f 18/44/10 34/43/10 35/45/10
f 38/48/11 37/47/11 36/46/11
f 37/47/11 38/48/11 39/49/11
f 40/52/12 14/51/12 13/50/12
f 14/51/12 40/52/12 41/53/12
f 14/51/12 41/53/12 21/54/12
f 41/57/13 37/56/13 39/55/13
f 37/56/13 41/57/13 8/58/13
f 8/58/13 41/57/13 40/59/13
f 8/58/13 40/59/13 7/60/13
f 7/60/13 40/59/13 28/61/13
f 43/64/14 36/63/14 42/62/14
f 24/65/14 36/63/14 43/64/14
f 26/66/14 36/63/14 24/65/14
f 44/67/14 36/63/14 26/66/14
f 36/63/14 44/67/14 38/68/14
f 23/71/15 33/70/15 22/69/15
f 33/70/15 23/71/15 34/72/15
f 34/72/15 23/71/15 45/73/15
f 32/76/16 46/75/16 31/74/16
f 46/75/16 32/76/16 27/77/16
f 27/77/16 32/76/16 29/78/16
f 35/81/17 19/80/17 18/79/17
f 19/80/17 35/81/17 47/82/17
f 47/82/17 35/81/17 43/83/17
f 43/83/17 35/81/17 45/84/17
f 43/83/17 45/84/17 24/85/17
f 24/85/17 45/84/17 23/86/17
f 44/89/17 39/88/17 38/87/17
f 39/88/17 44/89/17 25/90/17
f 15/91/17 39/88/17 25/90/17
f 21/92/17 39/88/17 15/91/17
f 39/88/17 21/92/17 41/93/17
f 15/91/17 25/90/17 11/94/17
f 11/94/17 25/90/17 12/95/17
f 15/91/17 11/94/17 48/96/17
f 15/91/17 48/96/17 5/97/17
f 5/97/17 48/96/17 4/98/17
f 44/101/18 26/100/18 25/99/18
f 2/104/19 4/103/19 48/102/19
f 27/107/20 49/106/20 46/105/20
f 33/108/20 49/106/20 27/107/20
f 16/109/20 49/106/20 33/108/20
f 49/106/20 16/109/20 17/110/20
f 33/108/20 27/107/20 28/111/20
f 33/108/20 28/111/20 22/112/20
f 22/112/20 28/111/20 40/113/20
f 22/112/20 40/113/20 10/114/20
f 13/115/20 10/114/20 40/113/20
f 10/114/20 13/115/20 9/116/20
f 9/116/20 13/115/20 3/117/20
f 9/116/20 3/117/20 1/118/20
f 47/121/21 20/120/21 19/119/21
f 50/124/17 32/123/17 30/122/17
f 32/123/17 50/124/17 29/125/17
f 29/125/17 50/124/17 51/126/17
f 29/125/17 51/126/17 6/127/17
f 6/127/17 51/126/17 42/128/17
f 6/127/17 42/128/17 36/129/17
f 6/127/17 36/129/17 8/130/17
f 8/130/17 36/129/17 37/131/17
f 35/134/22 34/133/22 45/132/22
f 17/137/23 52/136/23 49/135/23
f 52/136/23 17/137/23 20/138/23
f 52/136/23 20/138/23 47/139/23
f 52/136/23 47/139/23 51/140/23
f 51/140/23 47/139/23 42/141/23
f 42/141/23 47/139/23 43/142/23
f 50/145/24 49/144/24 52/143/24
f 49/144/24 50/145/24 30/146/24
f 49/144/24 30/146/24 46/147/24
f 46/147/24 30/146/24 31/148/24
f 2/151/25 9/150/25 1/149/25
f 9/150/25 2/151/25 11/152/25
f 11/152/25 2/151/25 48/153/25

usemtl _defaultMat

f 50/130/26 52/129/26 51/131/26

