# Created by Kenney (www.kenney.nl)

mtllib treePineSnow.mtl

g treePineSnow

v -0.07630002 0.1105263 -0.07630002
v -0.05631298 0.522 -0.05631298
v -0.07630002 0.1105263 0.0763
v -0.05631298 0.522 0.05631298
v 0.07630002 0.1105263 0.0763
v 0.05631304 0.522 0.05631298
v -0.106057 -8.014827E-32 -0.106057
v 0.106057 -8.014827E-32 -0.106057
v 0.07630002 0.1105263 -0.07630002
v 0.106057 -8.014827E-32 0.106057
v 0.05631304 0.522 -0.05631298
v -0.106057 -8.014827E-32 0.106057
v -0.3353384 0.636 -0.3353384
v -0.4107039 0.636 -0.23712
v -0.3095431 0.522 -0.3095431
v -0.3791113 0.522 -0.21888
v 0.43776 0.522 0
v 0.4228437 0.522 -0.1133006
v 0.4228437 0.522 0.1133006
v 0.3791113 0.522 0.21888
v 0.3791113 0.522 -0.21888
v 0.3095431 0.522 0.3095431
v 0.3095431 0.522 -0.3095431
v 0.2188799 0.522 0.3791113
v 0.2188799 0.522 -0.3791113
v 0.1133007 0.522 0.4228437
v 0.1133007 0.522 -0.4228437
v 0 0.522 0.43776
v -0.1133006 0.522 0.4228437
v 0 0.522 -0.43776
v -0.1133006 0.522 -0.4228437
v -0.21888 0.522 0.3791113
v -0.21888 0.522 -0.3791113
v -0.3095431 0.522 0.3095431
v -0.3791113 0.522 0.21888
v -0.4228437 0.522 0.1133006
v -0.4228437 0.522 -0.1133006
v -0.43776 0.522 0
v -0.4580806 0.636 -0.1227424
v -0.47424 0.636 0
v -0.23712 0.636 -0.4107039
v 0 0.636 -0.47424
v 0.1227423 0.636 -0.4580806
v 0.4742401 0.636 0
v 0.4580806 0.636 0.1227424
v 0.3353384 0.636 -0.3353384
v 0.4107039 0.636 -0.23712
v 0.23712 0.636 0.4107039
v 0.1227423 0.636 0.4580806
v 0 0.636 0.47424
v -0.4107039 0.636 0.23712
v -0.3353384 0.636 0.3353383
v 0.23712 0.636 -0.4107039
v -0.4580806 0.636 0.1227424
v -0.1227424 0.636 0.4580806
v 0.4107039 0.636 0.23712
v 0.3353384 0.636 0.3353383
v -0.1227424 0.636 -0.4580806
v 0.4580806 0.636 -0.1227424
v -0.23712 0.636 0.4107039
v 0.303653 0.9499999 0
v 0.2933064 0.9499999 0.0785912
v 0.2147151 0.9499999 0.2147152
v 0.1518265 0.9499999 0.2629713
v -0.07859123 0.9499999 0.2933064
v -0.1518265 0.9499999 0.2629713
v -0.2629713 0.9499999 -0.1518265
v -0.2933064 0.9499999 -0.07859123
v -0.2147152 0.9499999 -0.2147152
v -0.1518265 0.9499999 -0.2629713
v -0.3036531 0.9499999 0
v -0.2933064 0.9499999 0.0785912
v -0.2629713 0.9499999 0.1518265
v -0.2147152 0.9499999 0.2147152
v -0.07859123 0.9499999 -0.2933064
v 0 0.9499999 -0.3036531
v 0.07859123 0.9499999 0.2933064
v 0.2629713 0.9499999 0.1518265
v -0.21424 1.09208 -0.3710746
v -0.1108988 1.09208 -0.4138799
v -0.0289669 1.941 -0.05017215
v -0.01499438 1.941 -0.05595976
v 0.4138799 1.09208 -0.1108988
v 0.42848 1.09208 0
v 0.05595982 1.941 -0.01499438
v 0.05793381 1.941 0
v 0.4 0.9499999 0
v 0.3863703 0.9499999 -0.1035276
v 0.3863703 0.9499999 0.1035276
v 0.3464102 0.9499999 0.2
v 0.3464102 0.9499999 -0.2
v 0.2828428 0.9499999 0.2828427
v 0.2 0.9499999 0.3464102
v 0.1035277 0.9499999 0.3863703
v 0 0.9499999 0.4
v 0 0.9499999 0.3036531
v -0.1035276 0.9499999 0.3863703
v -0.2 0.9499999 0.3464102
v -0.2828428 0.9499999 0.2828427
v -0.3464102 0.9499999 0.2
v -0.3464102 0.9499999 -0.2
v -0.2828428 0.9499999 -0.2828428
v -0.2 0.9499999 -0.3464102
v -0.1035276 0.9499999 -0.3863703
v 0 0.9499999 -0.4
v 0.07859123 0.9499999 -0.2933064
v 0.1035277 0.9499999 -0.3863703
v 0.1518265 0.9499999 -0.2629713
v 0.2 0.9499999 -0.3464102
v 0.2147151 0.9499999 -0.2147152
v 0.2629713 0.9499999 -0.1518265
v 0.2828428 0.9499999 -0.2828428
v 0.2933064 0.9499999 -0.07859123
v -0.3863703 0.9499999 0.1035276
v -0.3863703 0.9499999 -0.1035276
v -0.4 0.9499999 0
v -0.3710746 1.09208 -0.21424
v -0.05017215 1.941 -0.0289669
v -0.4138799 1.09208 -0.1108988
v -0.05595976 1.941 -0.01499438
v 0.05595982 1.941 0.01499438
v 0.05017221 1.941 -0.0289669
v 0.05017221 1.941 0.0289669
v 0.04096544 1.941 -0.04096538
v 0.04096544 1.941 0.04096541
v 0.0289669 1.941 -0.05017215
v 0.0289669 1.941 0.05017215
v 0.01499438 1.941 -0.05595976
v 0.01499438 1.941 0.05595976
v 0 1.941 -0.05793381
v 0 1.941 0.05793381
v -0.01499438 1.941 0.05595976
v -0.0289669 1.941 0.05017215
v -0.04096538 1.941 -0.04096538
v -0.04096538 1.941 0.04096541
v -0.05017215 1.941 0.0289669
v -0.05595976 1.941 0.01499438
v -0.05793381 1.941 0
v 0 1.09208 -0.42848
v 0.1108987 1.09208 -0.4138799
v 0 1.09208 0.42848
v -0.1108988 1.09208 0.4138799
v -0.3710746 1.09208 0.21424
v -0.3029811 1.09208 0.3029811
v -0.21424 1.09208 0.3710746
v 0.3710746 1.09208 0.21424
v 0.3029811 1.09208 0.3029811
v 0.21424 1.09208 0.3710746
v 0.1108987 1.09208 0.4138799
v -0.42848 1.09208 0
v -0.4138799 1.09208 0.1108988
v 0.3029811 1.09208 -0.3029811
v 0.3710746 1.09208 -0.21424
v 0.21424 1.09208 -0.3710746
v 0.4138799 1.09208 0.1108988
v -0.3029811 1.09208 -0.3029811

vn -0.9988223 0.04851701 0
vn 0 0.04851701 0.9988223
vn 0 0.2599728 -0.9656159
vn 0.9656159 0.2599728 0
vn 0 0.04851701 -0.9988223
vn -0.9656159 0.2599728 0
vn 0 -1 0
vn 0 0.2599728 0.9656159
vn 0.9988223 0.04851701 0
vn -0.6734655 -0.3047757 -0.6734655
vn -0.8248236 -0.3047757 -0.4762121
vn -0.919971 -0.3047757 -0.2465055
vn -0.9524242 -0.3047757 0
vn -0.4762121 -0.3047757 -0.8248236
vn 0 -0.3047757 -0.9524242
vn 0.2465055 -0.3047757 -0.919971
vn 0.9524242 -0.3047757 0
vn 0.919971 -0.3047757 0.2465055
vn 0.6734655 -0.3047757 -0.6734655
vn 0.8248236 -0.3047757 -0.4762121
vn 0.4762121 -0.3047757 0.8248236
vn 0.2465055 -0.3047757 0.919971
vn 0 -0.3047757 0.9524242
vn -0.8248236 -0.3047757 0.4762121
vn -0.6734655 -0.3047757 0.6734655
vn 0.4762121 -0.3047757 -0.8248236
vn -0.919971 -0.3047757 0.2465055
vn -0.2465055 -0.3047757 0.919971
vn 0.8248236 -0.3047757 0.4762121
vn 0.6734655 -0.3047757 0.6734655
vn -0.2465055 -0.3047757 -0.919971
vn 0.919971 -0.3047757 -0.2465055
vn -0.4762121 -0.3047757 0.8248236
vn 0.8787011 0.4773723 0
vn 0.8487601 0.4773724 0.2274246
vn 0.6213355 0.4773724 0.6213355
vn 0.4393506 0.4773724 0.7609775
vn -0.2274246 0.4773724 0.8487601
vn -0.4393506 0.4773724 0.7609775
vn -0.7609775 0.4773724 -0.4393506
vn -0.8487601 0.4773724 -0.2274246
vn -0.6213355 0.4773724 -0.6213355
vn -0.4393506 0.4773724 -0.7609775
vn -0.8787011 0.4773723 0
vn -0.8487601 0.4773724 0.2274246
vn -0.7609775 0.4773724 0.4393506
vn -0.6213355 0.4773724 0.6213355
vn -0.2274246 0.4773724 -0.8487601
vn 0 0.4773723 -0.8787011
vn 0.2274246 0.4773724 0.8487601
vn 0.7609775 0.4773724 0.4393506
vn -0.4582483 0.4000427 -0.7937093
vn -0.2372067 0.4000427 -0.8852676
vn 0.8852676 0.4000427 -0.2372067
vn 0.9164965 0.4000427 0
vn 0.2274246 0.4773724 -0.8487601
vn -0.7937093 0.4000427 -0.4582483
vn -0.8852676 0.4000427 -0.2372067
vn 0.4393506 0.4773724 -0.7609775
vn 0.6213355 0.4773724 -0.6213355
vn 0.8487601 0.4773724 -0.2274246
vn 0.7609775 0.4773724 -0.4393506
vn 0 1 0
vn 0 0.4773723 0.8787011
vn 0 0.4000427 -0.9164965
vn 0.2372067 0.4000427 -0.8852676
vn 0 0.4000427 0.9164965
vn -0.2372067 0.4000427 0.8852676
vn -0.7937093 0.4000427 0.4582483
vn -0.6480609 0.4000427 0.6480609
vn -0.4582483 0.4000427 0.7937093
vn 0.7937093 0.4000427 0.4582483
vn 0.6480609 0.4000427 0.6480609
vn 0.4582483 0.4000427 0.7937093
vn 0.2372067 0.4000427 0.8852676
vn -0.9164965 0.4000427 0
vn -0.8852676 0.4000427 0.2372067
vn 0.6480609 0.4000427 -0.6480609
vn 0.7937093 0.4000427 -0.4582483
vn 0.4582483 0.4000427 -0.7937093
vn 0.8852676 0.4000427 0.2372067
vn -0.6480609 0.4000427 -0.6480609
vn 0.9804956 -0.1965408 0
vn 0.947086 -0.1965408 0.2537709
vn 0.8491341 -0.1965408 0.4902479
vn 0.6933151 -0.1965408 0.6933151
vn 0 -0.1965408 -0.9804956
vn 0.2537709 -0.1965408 -0.947086
vn -0.9804956 -0.1965408 0
vn -0.947086 -0.1965408 0.2537709
vn -0.947086 -0.1965408 -0.2537709
vn 0.6933151 -0.1965408 -0.6933151
vn 0.8491341 -0.1965408 -0.4902479
vn -0.4902479 -0.1965408 -0.8491341
vn -0.2537709 -0.1965408 -0.947086
vn -0.8491341 -0.1965408 -0.4902479
vn -0.8491341 -0.1965408 0.4902479
vn -0.6933151 -0.1965408 -0.6933151
vn 0.2537709 -0.1965408 0.947086
vn 0 -0.1965408 0.9804956
vn 0.4902479 -0.1965408 -0.8491341
vn -0.2537709 -0.1965408 0.947086
vn -0.4902479 -0.1965408 0.8491341
vn 0.947086 -0.1965408 -0.2537709
vn -0.6933151 -0.1965408 0.6933151
vn 0.4902479 -0.1965408 0.8491341

vt -3.003937 4.200562
vt -2.217047 20.41941
vt 3.003937 4.200562
vt 2.217047 20.41941
vt 4.175472 -1.085509
vt -4.175472 -1.085509
vt 3.003937 3.420867
vt -3.003937 3.420867
vt 4.175472 4.175472
vt 4.175472 -4.175472
vt -4.175472 4.175472
vt -4.175472 -4.175472
vt -2.437037 29.4649
vt 2.437037 29.4649
vt -2.249573 24.75625
vt 2.249573 24.75625
vt 17.23465 1.136868E-13
vt 16.64739 -4.460655
vt 16.64739 4.460655
vt 14.92564 8.617323
vt 14.92564 -8.617323
vt 12.18674 12.18674
vt 12.18674 -12.18674
vt 8.617323 14.92564
vt 8.617323 -14.92564
vt 4.460655 16.64739
vt 4.460655 -16.64739
vt 2.217047 2.217047
vt -1.136868E-13 17.23465
vt 2.217047 -2.217047
vt -2.217047 2.217047
vt -4.460655 16.64739
vt -2.217047 -2.217047
vt -1.136868E-13 -17.23465
vt -4.460655 -16.64739
vt -8.617323 14.92564
vt -8.617323 -14.92564
vt -12.18674 12.18674
vt -12.18674 -12.18674
vt -14.92564 8.617323
vt -14.92564 -8.617323
vt -16.64739 4.460655
vt -16.64739 -4.460655
vt -17.23465 1.136868E-13
vt 1.560421 27.30819
vt 2.437037 13.2668
vt -1.560421 27.30819
vt -2.437037 13.2668
vt 2.201884 32.81632
vt -2.201884 32.81632
vt 0.2977119 69.23376
vt -0.2977119 69.23376
vt 15.74803 0
vt 15.21143 -4.075891
vt 15.21143 4.075891
vt 13.6382 7.874016
vt 13.6382 -7.874016
vt 11.13554 11.13554
vt 11.95485 -7.958079E-13
vt 11.54749 3.094142
vt 10.3532 5.977423
vt 7.874016 13.6382
vt 8.453353 8.453353
vt 5.977423 10.3532
vt 4.075891 15.21143
vt 3.094142 11.54749
vt 0 15.74803
vt 2.273737E-13 11.95485
vt -3.094142 11.54749
vt -4.075891 15.21143
vt -5.977423 10.3532
vt -7.874016 13.6382
vt -8.453353 8.453353
vt -11.13554 11.13554
vt -10.3532 5.977423
vt -11.54749 3.094142
vt -13.6382 7.874016
vt -11.95485 -6.82121E-13
vt -13.6382 -7.874016
vt -11.54749 -3.094142
vt -11.13554 -11.13554
vt -10.3532 -5.977423
vt -8.453353 -8.453353
vt -7.874016 -13.6382
vt -5.977423 -10.3532
vt -4.075891 -15.21143
vt -3.094142 -11.54749
vt 0 -15.74803
vt 4.547474E-13 -11.95485
vt 3.094142 -11.54749
vt 4.075891 -15.21143
vt 5.977423 -10.3532
vt 7.874016 -13.6382
vt 8.453353 -8.453353
vt 10.3532 -5.977423
vt 11.13554 -11.13554
vt 11.54749 -3.094142
vt -15.21143 4.075891
vt -15.21143 -4.075891
vt -15.74803 0
vt -2.280859 -9.094947E-13
vt -2.203141 0.5903298
vt -2.203141 -0.5903298
vt -1.975282 -1.14043
vt -1.975282 1.14043
vt -1.612811 -1.612811
vt -1.612811 1.612811
vt -1.14043 -1.975282
vt -1.14043 1.975282
vt -0.5903298 -2.203141
vt -0.5903298 2.203141
vt -2.273737E-13 -2.280859
vt -2.273737E-13 2.280859
vt 0.5903298 -2.203141
vt 0.5903298 2.203141
vt 1.14043 -1.975282
vt 1.14043 1.975282
vt 1.612811 -1.612811
vt 1.612811 1.612811
vt 1.975282 -1.14043
vt 1.975282 1.14043
vt 2.203141 -0.5903298
vt 2.203141 0.5903298
vt 2.280859 -9.094947E-13
vt 2.201884 45.43065
vt 2.055531 39.72755
vt -2.201884 45.43065
vt -2.055531 39.72755

usemtl dirt

f 3/3/1 2/2/1 1/1/1
f 2/2/1 3/3/1 4/4/1
f 6/4/2 3/1/2 5/3/2
f 3/1/2 6/4/2 4/2/2
f 1/7/3 8/6/3 7/5/3
f 8/6/3 1/7/3 9/8/3
f 9/7/4 10/6/4 8/5/4
f 10/6/4 9/7/4 5/8/4
f 2/4/5 9/1/5 1/3/5
f 9/1/5 2/4/5 11/2/5
f 12/5/6 1/8/6 7/6/6
f 1/8/6 12/5/6 3/7/6
f 12/11/7 8/10/7 10/9/7
f 8/10/7 12/11/7 7/12/7
f 5/7/8 12/6/8 10/5/8
f 12/6/8 5/7/8 3/8/8
f 11/4/9 5/1/9 9/3/9
f 5/1/9 11/4/9 6/2/9

usemtl snow

f 15/15/10 14/14/11 13/13/10
f 14/14/11 15/15/10 16/16/11
f 19/19/7 18/18/7 17/17/7
f 18/18/7 19/19/7 20/20/7
f 18/18/7 20/20/7 21/21/7
f 21/21/7 20/20/7 22/22/7
f 21/21/7 22/22/7 23/23/7
f 23/23/7 22/22/7 24/24/7
f 23/23/7 24/24/7 25/25/7
f 25/25/7 24/24/7 26/26/7
f 25/25/7 26/26/7 27/27/7
f 27/27/7 26/26/7 6/28/7
f 6/28/7 26/26/7 28/29/7
f 27/27/7 6/28/7 11/30/7
f 6/28/7 28/29/7 4/31/7
f 4/31/7 28/29/7 29/32/7
f 4/31/7 29/32/7 2/33/7
f 11/30/7 30/34/7 27/27/7
f 30/34/7 11/30/7 2/33/7
f 30/34/7 2/33/7 31/35/7
f 31/35/7 2/33/7 29/32/7
f 31/35/7 29/32/7 32/36/7
f 31/35/7 32/36/7 33/37/7
f 33/37/7 32/36/7 34/38/7
f 33/37/7 34/38/7 15/39/7
f 15/39/7 34/38/7 35/40/7
f 15/39/7 35/40/7 16/41/7
f 16/41/7 35/40/7 36/42/7
f 16/41/7 36/42/7 37/43/7
f 37/43/7 36/42/7 38/44/7
f 37/15/12 40/14/13 39/13/12
f 40/14/13 37/15/12 38/16/13
f 13/14/10 33/15/14 15/16/10
f 33/15/14 13/14/10 41/13/14
f 42/14/15 27/15/16 30/16/15
f 27/15/16 42/14/15 43/13/16
f 45/13/18 17/16/17 44/14/17
f 17/16/17 45/13/18 19/15/18
f 47/13/20 23/16/19 46/14/19
f 23/16/19 47/13/20 21/15/20
f 48/14/21 26/15/22 24/16/21
f 26/15/22 48/14/21 49/13/22
f 16/15/11 39/14/12 14/13/11
f 39/14/12 16/15/11 37/16/12
f 49/14/22 28/15/23 26/16/22
f 28/15/23 49/14/22 50/13/23
f 34/16/25 51/13/24 35/15/24
f 51/13/24 34/16/25 52/14/25
f 53/14/26 23/15/19 25/16/26
f 23/15/19 53/14/26 46/13/19
f 35/16/24 54/13/27 36/15/27
f 54/13/27 35/16/24 51/14/24
f 50/14/23 29/15/28 28/16/23
f 29/15/28 50/14/23 55/13/28
f 56/14/29 22/15/30 20/16/29
f 22/15/30 56/14/29 57/13/30
f 38/15/13 54/14/27 40/13/13
f 54/14/27 38/15/13 36/16/27
f 43/14/16 25/15/26 27/16/16
f 25/15/26 43/14/16 53/13/26
f 58/14/31 30/15/15 31/16/31
f 30/15/15 58/14/31 42/13/15
f 59/13/32 21/16/20 47/14/20
f 21/16/20 59/13/32 18/15/32
f 45/14/18 20/15/29 19/16/18
f 20/15/29 45/14/18 56/13/29
f 57/14/30 24/15/21 22/16/30
f 24/15/21 57/14/30 48/13/21
f 55/14/28 32/15/33 29/16/28
f 32/15/33 55/14/28 60/13/33
f 62/47/35 44/46/34 61/45/34
f 44/46/34 62/47/35 45/48/35
f 63/45/36 48/48/37 57/46/36
f 48/48/37 63/45/36 64/47/37
f 65/45/38 60/48/39 55/46/38
f 60/48/39 65/45/38 66/47/39
f 39/46/41 67/47/40 14/48/40
f 67/47/40 39/46/41 68/45/41
f 69/45/42 41/48/43 13/46/42
f 41/48/43 69/45/42 70/47/43
f 40/48/44 72/45/45 71/47/44
f 72/45/45 40/48/44 54/46/45
f 51/48/46 74/45/47 73/47/46
f 74/45/47 51/48/46 52/46/47
f 54/48/45 73/45/46 72/47/45
f 73/45/46 54/48/45 51/46/46
f 75/45/48 42/48/49 58/46/48
f 42/48/49 75/45/48 76/47/49
f 64/45/37 49/48/50 48/46/37
f 49/48/50 64/45/37 77/47/50
f 66/45/39 52/48/47 60/46/39
f 52/48/47 66/45/39 74/47/47
f 14/46/40 69/47/42 13/48/42
f 69/47/42 14/46/40 67/45/40
f 60/14/33 34/15/25 32/16/33
f 34/15/25 60/14/33 52/13/25
f 44/13/17 18/16/32 59/14/32
f 18/16/32 44/13/17 17/15/17
f 78/47/51 45/46/35 62/45/35
f 45/46/35 78/47/51 56/48/51
f 40/46/44 68/47/41 39/48/41
f 68/47/41 40/46/44 71/45/44
f 41/14/14 31/15/31 33/16/14
f 31/15/31 41/14/14 58/13/31
f 81/51/52 80/50/53 79/49/52
f 80/50/53 81/51/52 82/52/53
f 85/51/54 84/50/55 83/49/54
f 84/50/55 85/51/54 86/52/55
f 89/55/7 88/54/7 87/53/7
f 88/54/7 89/55/7 90/56/7
f 88/54/7 90/56/7 91/57/7
f 91/57/7 90/56/7 92/58/7
f 91/57/7 92/58/7 61/59/7
f 61/59/7 92/58/7 62/60/7
f 62/60/7 92/58/7 78/61/7
f 78/61/7 92/58/7 93/62/7
f 78/61/7 93/62/7 63/63/7
f 63/63/7 93/62/7 64/64/7
f 64/64/7 93/62/7 94/65/7
f 64/64/7 94/65/7 77/66/7
f 77/66/7 94/65/7 95/67/7
f 77/66/7 95/67/7 96/68/7
f 96/68/7 95/67/7 65/69/7
f 65/69/7 95/67/7 97/70/7
f 65/69/7 97/70/7 66/71/7
f 66/71/7 97/70/7 98/72/7
f 66/71/7 98/72/7 74/73/7
f 74/73/7 98/72/7 99/74/7
f 74/73/7 99/74/7 73/75/7
f 73/75/7 99/74/7 72/76/7
f 72/76/7 99/74/7 100/77/7
f 72/76/7 100/77/7 71/78/7
f 101/79/7 71/78/7 100/77/7
f 101/79/7 68/80/7 71/78/7
f 102/81/7 68/80/7 101/79/7
f 102/81/7 67/82/7 68/80/7
f 102/81/7 69/83/7 67/82/7
f 103/84/7 69/83/7 102/81/7
f 103/84/7 70/85/7 69/83/7
f 104/86/7 70/85/7 103/84/7
f 104/86/7 75/87/7 70/85/7
f 105/88/7 75/87/7 104/86/7
f 105/88/7 76/89/7 75/87/7
f 105/88/7 106/90/7 76/89/7
f 107/91/7 106/90/7 105/88/7
f 107/91/7 108/92/7 106/90/7
f 109/93/7 108/92/7 107/91/7
f 109/93/7 110/94/7 108/92/7
f 109/93/7 111/95/7 110/94/7
f 112/96/7 111/95/7 109/93/7
f 112/96/7 113/97/7 111/95/7
f 112/96/7 61/59/7 113/97/7
f 61/59/7 112/96/7 91/57/7
f 101/79/7 100/77/7 114/98/7
f 101/79/7 114/98/7 115/99/7
f 115/99/7 114/98/7 116/100/7
f 76/45/49 43/48/56 42/46/49
f 43/48/56 76/45/49 106/47/56
f 119/49/58 118/52/57 117/50/57
f 118/52/57 119/49/58 120/51/58
f 63/47/36 56/46/51 78/45/51
f 56/46/51 63/47/36 57/48/36
f 108/45/59 46/48/60 53/46/59
f 46/48/60 108/45/59 110/47/60
f 113/45/61 44/48/34 59/46/61
f 44/48/34 113/45/61 61/47/34
f 110/45/60 47/48/62 46/46/60
f 47/48/62 110/45/60 111/47/62
f 106/45/56 53/48/59 43/46/56
f 53/48/59 106/45/56 108/47/59
f 85/103/63 121/102/63 86/101/63
f 121/102/63 85/103/63 122/104/63
f 121/102/63 122/104/63 123/105/63
f 123/105/63 122/104/63 124/106/63
f 123/105/63 124/106/63 125/107/63
f 125/107/63 124/106/63 126/108/63
f 125/107/63 126/108/63 127/109/63
f 127/109/63 126/108/63 128/110/63
f 127/109/63 128/110/63 129/111/63
f 129/111/63 128/110/63 130/112/63
f 129/111/63 130/112/63 131/113/63
f 131/113/63 130/112/63 82/114/63
f 131/113/63 82/114/63 132/115/63
f 132/115/63 82/114/63 81/116/63
f 132/115/63 81/116/63 133/117/63
f 133/117/63 81/116/63 134/118/63
f 133/117/63 134/118/63 135/119/63
f 135/119/63 134/118/63 118/120/63
f 135/119/63 118/120/63 136/121/63
f 136/121/63 118/120/63 120/122/63
f 136/121/63 120/122/63 137/123/63
f 137/123/63 120/122/63 138/124/63
f 77/45/50 50/48/64 49/46/50
f 50/48/64 77/45/50 96/47/64
f 111/45/62 59/48/61 47/46/62
f 59/48/61 111/45/62 113/47/61
f 130/51/65 140/50/66 139/49/65
f 140/50/66 130/51/65 128/52/66
f 96/45/64 55/48/38 50/46/64
f 55/48/38 96/45/64 65/47/38
f 70/45/43 58/48/48 41/46/43
f 58/48/48 70/45/43 75/47/48
f 131/51/67 142/50/68 141/49/67
f 142/50/68 131/51/67 132/52/68
f 143/50/69 135/51/70 136/52/69
f 135/51/70 143/50/69 144/49/70
f 82/51/53 139/50/65 80/49/53
f 139/50/65 82/51/53 130/52/65
f 133/51/71 144/50/70 145/49/71
f 144/50/70 133/51/71 135/52/70
f 125/52/73 146/49/72 123/51/72
f 146/49/72 125/52/73 147/50/73
f 127/51/74 149/50/75 148/49/74
f 149/50/75 127/51/74 129/52/75
f 132/51/68 145/50/71 142/49/68
f 145/50/71 132/51/68 133/52/71
f 150/49/76 120/52/58 119/50/58
f 120/52/58 150/49/76 138/51/76
f 151/50/77 136/51/69 137/52/77
f 136/51/69 151/50/77 143/49/69
f 125/51/73 148/50/74 147/49/73
f 148/50/74 125/51/73 127/52/74
f 124/51/78 153/50/79 152/49/78
f 153/50/79 124/51/78 122/52/79
f 128/51/66 154/50/80 140/49/66
f 154/50/80 128/51/66 126/52/80
f 150/50/76 137/51/77 138/52/76
f 137/51/77 150/50/76 151/49/77
f 123/52/72 155/49/81 121/51/81
f 155/49/81 123/52/72 146/50/72
f 129/51/75 141/50/67 149/49/75
f 141/50/67 129/51/75 131/52/67
f 117/49/57 134/52/82 156/50/82
f 134/52/82 117/49/57 118/51/57
f 122/51/79 83/50/54 153/49/79
f 83/50/54 122/51/79 85/52/54
f 121/52/81 84/49/55 86/51/55
f 84/49/55 121/52/81 155/50/81
f 126/51/80 152/50/78 154/49/80
f 152/50/78 126/51/80 124/52/78
f 134/51/82 79/50/52 156/49/82
f 79/50/52 134/51/82 81/52/52
f 155/127/84 87/126/83 84/125/83
f 87/126/83 155/127/84 89/128/84
f 146/125/85 92/128/86 90/126/85
f 92/128/86 146/125/85 147/127/86
f 139/125/87 107/128/88 105/126/87
f 107/128/88 139/125/87 140/127/88
f 116/128/89 151/125/90 150/127/89
f 151/125/90 116/128/89 114/126/90
f 115/128/91 150/125/89 119/127/91
f 150/125/89 115/128/91 116/126/89
f 153/127/93 112/126/92 152/125/92
f 112/126/92 153/127/93 91/128/93
f 79/125/94 104/128/95 103/126/94
f 104/128/95 79/125/94 80/127/95
f 101/128/96 119/125/91 117/127/96
f 119/125/91 101/128/96 115/126/91
f 100/126/97 151/127/90 114/128/90
f 151/127/90 100/126/97 143/125/97
f 156/125/98 103/128/94 102/126/98
f 103/128/94 156/125/98 79/127/94
f 149/125/99 95/128/100 94/126/99
f 95/128/100 149/125/99 141/127/100
f 140/125/88 109/128/101 107/126/88
f 109/128/101 140/125/88 154/127/101
f 102/128/98 117/125/96 156/127/98
f 117/125/96 102/128/98 101/126/96
f 142/125/102 98/128/103 97/126/102
f 98/128/103 142/125/102 145/127/103
f 83/127/104 91/126/93 153/125/93
f 91/126/93 83/127/104 88/128/104
f 84/127/83 88/126/104 83/125/104
f 88/126/104 84/127/83 87/128/83
f 145/125/103 99/128/105 98/126/103
f 99/128/105 145/125/103 144/127/105
f 154/125/101 112/128/92 109/126/101
f 112/128/92 154/125/101 152/127/92
f 80/125/95 105/128/87 104/126/95
f 105/128/87 80/125/95 139/127/87
f 148/125/106 94/128/99 93/126/106
f 94/128/99 148/125/106 149/127/99
f 147/125/86 93/128/106 92/126/86
f 93/128/106 147/125/86 148/127/106
f 141/125/100 97/128/102 95/126/100
f 97/128/102 141/125/100 142/127/102
f 99/126/105 143/127/97 100/128/97
f 143/127/97 99/126/105 144/125/105
f 155/125/84 90/128/85 89/126/84
f 90/128/85 155/125/84 146/127/85

