# Created by Kenney (www.kenney.nl)

mtllib blockDirtHalf.mtl

g blockDirtHalf

v 0.5 0 0.5
v 0.5 0 -0.5
v -0.5 0 0.5
v -0.5 0 -0.5
v 0.5 0.5 -0.5
v 0.5 0.5 0.5
v -0.5 0.5 0.5
v -0.5 0.5 -0.5

vn 0 -1 0
vn 1 0 0
vn 0 0 1
vn -1 0 0
vn 0 1 0
vn 0 0 -1

vt 19.68504 19.68504
vt 19.68504 -19.68504
vt -19.68504 19.68504
vt -19.68504 -19.68504
vt 19.68504 -9.208634E-12
vt -19.68504 -9.208634E-12
vt 19.68504 0
vt -19.68504 0
vt 19.68504 9.947598E-12
vt -19.68504 9.947598E-12

usemtl dirt

f 3/3/1 2/2/1 1/1/1
f 2/2/1 3/3/1 4/4/1
f 6/3/2 2/5/2 5/1/2
f 2/5/2 6/3/2 1/6/2
f 6/1/3 3/8/3 1/7/3
f 3/8/3 6/1/3 7/3/3
f 3/7/4 8/3/4 4/8/4
f 8/3/4 3/7/4 7/1/4
f 5/4/5 7/1/5 6/3/5
f 7/1/5 5/4/5 8/2/5
f 8/1/6 2/10/6 4/9/6
f 2/10/6 8/1/6 5/3/6

