# Created by Kenney (www.kenney.nl)

mtllib blockHalf.mtl

g blockHalf

v 0.591514 0.3414931 -0.5
v 0.633028 0.2695887 -0.4166666
v 0.5 0.5 -0.5
v 0.591514 0.3414931 -0.3333333
v 0.5 0.5 0.5
v 0.591514 0.3414931 -0.1666667
v 0.633028 0.2695887 -0.25
v 0.591514 0.3414931 0
v 0.633028 0.2695887 -0.08333331
v 0.591514 0.3414931 0.1666667
v 0.633028 0.2695887 0.08333331
v 0.633028 0.2695887 0.25
v 0.591514 0.3414931 0.3333333
v 0.633028 0.2695887 0.4166666
v 0.591514 0.3414931 0.5
v 0.5 0.3414931 -0.591514
v -0.591514 0.3414931 0.5
v -0.5 0.5 0.5
v -0.5 0.3414931 0.591514
v -0.591514 0.3414931 -0.5
v -0.5 0.3414931 -0.591514
v -0.5 0.5 -0.5
v 0.5 0.3414931 0.591514
v -0.633028 0.2695887 -0.4166666
v -0.591514 0.3414931 -0.3333333
v -0.591514 0.3414931 -0.1666667
v -0.633028 0.2695887 -0.25
v -0.591514 0.3414931 0
v -0.633028 0.2695887 -0.08333331
v -0.591514 0.3414931 0.1666667
v -0.633028 0.2695887 0.08333331
v -0.633028 0.2695887 0.25
v -0.591514 0.3414931 0.3333333
v -0.633028 0.2695887 0.4166666
v 0.4166666 0.2695887 0.633028
v 0.3333333 0.3414931 0.591514
v 0.1666667 0.3414931 0.591514
v 0 0.3414931 0.591514
v -0.1666667 0.3414931 0.591514
v -0.3333333 0.3414931 0.591514
v -0.4166666 0.2695887 0.633028
v -0.25 0.2695887 0.633028
v -0.08333331 0.2695887 0.633028
v 0.08333325 0.2695887 0.633028
v 0.25 0.2695887 0.633028
v -0.4166666 0.2695887 -0.633028
v -0.3333333 0.3414931 -0.591514
v -0.1666667 0.3414931 -0.591514
v 0 0.3414931 -0.591514
v 0.1666667 0.3414931 -0.591514
v 0.3333333 0.3414931 -0.591514
v 0.4166666 0.2695887 -0.633028
v 0.25 0.2695887 -0.633028
v 0.08333325 0.2695887 -0.633028
v -0.08333331 0.2695887 -0.633028
v -0.25 0.2695887 -0.633028
v 0.5 0 0.5
v -0.5 0 0.5
v 0.5 0 -0.5
v -0.5 0 -0.5

vn 0.8660254 0.4999999 0
vn -0.8660254 -0.4999999 0
vn 0.6546537 0.3779645 -0.6546537
vn -0.6546537 -0.3779645 0.6546537
vn -0.6546537 0.3779645 0.6546537
vn 0.6546537 -0.3779645 -0.6546537
vn -0.6546537 0.3779645 -0.6546535
vn 0.6546537 -0.3779645 0.6546535
vn 0 1 0
vn 0.6546535 0.3779645 0.6546537
vn -0.6546535 -0.3779645 -0.6546537
vn -0.8660254 0.4999999 0
vn 0.8660254 -0.4999999 0
vn 0 0.4999999 0.8660254
vn 0 -0.4999999 -0.8660254
vn 0 0.4999999 -0.8660254
vn 0 -0.4999999 0.8660254
vn 0 0 1
vn 1 0 0
vn 0 0 -1
vn -1 0 0
vn 0 -1 0

vt 19.68504 -0.0005999279
vt 16.4042 -3.26942
vt 19.68504 7.205227
vt 13.12336 -0.0005999279
vt -19.68504 7.205227
vt 6.561681 -0.0005999279
vt 9.84252 -3.26942
vt -3.125444E-12 -0.0005999279
vt 3.280838 -3.26942
vt -6.561681 -0.0005999279
vt -3.280838 -3.26942
vt -9.84252 -3.26942
vt -13.12336 -0.0005999279
vt -16.4042 -3.26942
vt -19.68504 -0.0005999279
vt 2.547645 0.962274
vt -2.547645 0.962274
vt -4.209078E-11 7.702708
vt -2.547644 0.9622753
vt 8.881784E-15 7.702709
vt 2.547644 0.9622753
vt 2.547643 0.9622746
vt -2.547647 0.9622746
vt -1.521016E-06 7.702709
vt -19.68504 19.68504
vt 19.68504 19.68504
vt -19.68504 -19.68504
vt 19.68504 -19.68504
vt 2.547647 0.9622746
vt -2.547643 0.9622746
vt 1.521009E-06 7.702709
vt -19.68504 -0.0005998649
vt -16.4042 -3.26942
vt -13.12336 -0.0005998649
vt -6.561681 -0.0005998649
vt 3.388367E-14 -0.0005998649
vt 6.561681 -0.0005998649
vt 13.12336 -0.0005998649
vt 16.4042 -3.26942
vt 19.68504 -0.0005998649
vt -9.235932E-15 -0.0005998649
vt 19.68504 -0.0005999279
vt -3.332856E-12 -0.0005999279
vt 19.68504 0
vt -19.68504 0
vt 19.68504 -9.208634E-12
vt -19.68504 -9.208634E-12
vt 19.68504 9.919177E-12
vt -19.68504 9.919177E-12

usemtl grass

f 3/3/1 2/2/1 1/1/1
f 2/2/1 3/3/1 4/4/1
f 4/4/1 3/3/1 5/5/1
f 4/4/1 5/5/1 6/6/1
f 4/4/1 6/6/1 7/7/1
f 6/6/1 5/5/1 8/8/1
f 6/6/1 8/8/1 9/9/1
f 8/8/1 5/5/1 10/10/1
f 8/8/1 10/10/1 11/11/1
f 10/10/1 5/5/1 12/12/1
f 12/12/1 5/5/1 13/13/1
f 13/13/1 5/5/1 14/14/1
f 14/14/1 5/5/1 15/15/1
f 1/1/2 2/2/2 3/3/2
f 4/4/2 3/3/2 2/2/2
f 5/5/2 3/3/2 4/4/2
f 6/6/2 5/5/2 4/4/2
f 7/7/2 6/6/2 4/4/2
f 8/8/2 5/5/2 6/6/2
f 9/9/2 8/8/2 6/6/2
f 10/10/2 5/5/2 8/8/2
f 11/11/2 10/10/2 8/8/2
f 12/12/2 5/5/2 10/10/2
f 13/13/2 5/5/2 12/12/2
f 14/14/2 5/5/2 13/13/2
f 15/15/2 5/5/2 14/14/2
f 3/18/3 1/17/3 16/16/3
f 16/16/4 1/17/4 3/18/4
f 19/21/5 18/20/5 17/19/5
f 17/19/6 18/20/6 19/21/6
f 22/24/7 21/23/7 20/22/7
f 20/22/8 21/23/8 22/24/8
f 3/27/9 18/26/9 5/25/9
f 18/26/9 3/27/9 22/28/9
f 5/31/10 23/30/10 15/29/10
f 15/29/11 23/30/11 5/31/11
f 24/33/12 22/5/12 20/32/12
f 22/5/12 24/33/12 25/34/12
f 22/5/12 25/34/12 18/3/12
f 18/3/12 25/34/12 26/35/12
f 26/35/12 25/34/12 27/12/12
f 18/3/12 26/35/12 28/36/12
f 28/36/12 26/35/12 29/11/12
f 18/3/12 28/36/12 30/37/12
f 30/37/12 28/36/12 31/9/12
f 18/3/12 30/37/12 32/7/12
f 18/3/12 32/7/12 33/38/12
f 18/3/12 33/38/12 34/39/12
f 18/3/12 34/39/12 17/40/12
f 20/32/13 22/5/13 24/33/13
f 25/34/13 24/33/13 22/5/13
f 18/3/13 25/34/13 22/5/13
f 26/35/13 25/34/13 18/3/13
f 27/12/13 25/34/13 26/35/13
f 28/36/13 26/35/13 18/3/13
f 29/11/13 26/35/13 28/36/13
f 30/37/13 28/36/13 18/3/13
f 31/9/13 28/36/13 30/37/13
f 32/7/13 30/37/13 18/3/13
f 33/38/13 32/7/13 18/3/13
f 34/39/13 33/38/13 18/3/13
f 17/40/13 34/39/13 18/3/13
f 23/40/14 36/38/14 35/2/14
f 36/38/14 23/40/14 5/3/14
f 36/38/14 5/3/14 37/37/14
f 37/37/14 5/3/14 38/41/14
f 38/41/14 5/3/14 39/35/14
f 39/35/14 5/3/14 40/34/14
f 40/34/14 5/3/14 19/32/14
f 19/32/14 5/3/14 18/5/14
f 19/32/14 41/14/14 40/34/14
f 40/34/14 42/12/14 39/35/14
f 39/35/14 43/11/14 38/41/14
f 38/41/14 44/9/14 37/37/14
f 37/37/14 45/7/14 36/38/14
f 35/2/15 36/38/15 23/40/15
f 5/3/15 23/40/15 36/38/15
f 37/37/15 5/3/15 36/38/15
f 38/41/15 5/3/15 37/37/15
f 39/35/15 5/3/15 38/41/15
f 40/34/15 5/3/15 39/35/15
f 19/32/15 5/3/15 40/34/15
f 18/5/15 5/3/15 19/32/15
f 40/34/15 41/14/15 19/32/15
f 39/35/15 42/12/15 40/34/15
f 38/41/15 43/11/15 39/35/15
f 37/37/15 44/9/15 38/41/15
f 36/38/15 45/7/15 37/37/15
f 21/42/16 47/4/16 46/39/16
f 47/4/16 21/42/16 22/3/16
f 47/4/16 22/3/16 48/6/16
f 48/6/16 22/3/16 49/43/16
f 49/43/16 22/3/16 50/10/16
f 50/10/16 22/3/16 51/13/16
f 51/13/16 22/3/16 16/15/16
f 16/15/16 22/3/16 3/5/16
f 16/15/16 52/33/16 51/13/16
f 51/13/16 53/12/16 50/10/16
f 50/10/16 54/11/16 49/43/16
f 49/43/16 55/9/16 48/6/16
f 48/6/16 56/7/16 47/4/16
f 46/39/17 47/4/17 21/42/17
f 22/3/17 21/42/17 47/4/17
f 48/6/17 22/3/17 47/4/17
f 49/43/17 22/3/17 48/6/17
f 50/10/17 22/3/17 49/43/17
f 51/13/17 22/3/17 50/10/17
f 16/15/17 22/3/17 51/13/17
f 3/5/17 22/3/17 16/15/17
f 51/13/17 52/33/17 16/15/17
f 50/10/17 53/12/17 51/13/17
f 49/43/17 54/11/17 50/10/17
f 48/6/17 55/9/17 49/43/17
f 47/4/17 56/7/17 48/6/17

usemtl dirt

f 5/26/18 58/45/18 57/44/18
f 58/45/18 5/26/18 18/25/18
f 5/25/19 59/46/19 3/26/19
f 59/46/19 5/25/19 57/47/19
f 22/26/20 59/49/20 60/48/20
f 59/49/20 22/26/20 3/25/20
f 58/44/21 22/25/21 60/45/21
f 22/25/21 58/44/21 18/26/21
f 58/25/22 59/28/22 57/26/22
f 59/28/22 58/25/22 60/27/22

