# Created by Kenney (www.kenney.nl)

mtllib blockLarge.mtl

g blockLarge

v -1.091514 0.8414931 -1
v -1 0.8414931 -1.091514
v -1 1 -1
v 0.9166666 0.7695886 1.133028
v 0.8333333 0.8414931 1.091514
v 1 0.8414931 1.091514
v 1 1 1
v 0.6666667 0.8414931 1.091514
v 0.5 0.8414931 1.091514
v 0.3333333 0.8414931 1.091514
v 0.1666667 0.8414931 1.091514
v 0 0.8414931 1.091514
v -0.166667 0.8414931 1.091514
v -0.333333 0.8414931 1.091514
v -0.5 0.8414931 1.091514
v -0.666667 0.8414931 1.091514
v -0.833333 0.8414931 1.091514
v -1 0.8414931 1.091514
v -1 1 1
v -0.916667 0.7695886 1.133028
v -0.75 0.7695886 1.133028
v -0.583333 0.7695886 1.133028
v -0.416667 0.7695886 1.133028
v -0.25 0.7695886 1.133028
v -0.08333302 0.7695886 1.133028
v 0.08333337 0.7695886 1.133028
v 0.25 0.7695886 1.133028
v 0.4166667 0.7695886 1.133028
v 0.5833333 0.7695886 1.133028
v 0.75 0.7695886 1.133028
v -1.091514 0.8414931 1
v -1.091514 0.8414931 -0.8333333
v -1.133028 0.7695886 -0.9166666
v -1.091514 0.8414931 -0.6666667
v -1.133028 0.7695886 -0.75
v -1.091514 0.8414931 -0.5
v -1.133028 0.7695886 -0.5833333
v -1.091514 0.8414931 -0.3333333
v -1.133028 0.7695886 -0.4166667
v -1.091514 0.8414931 -0.1666667
v -1.133028 0.7695886 -0.25
v -1.091514 0.8414931 0
v -1.133028 0.7695886 -0.08333331
v -1.091514 0.8414931 0.166667
v -1.133028 0.7695886 0.08333302
v -1.091514 0.8414931 0.333333
v -1.133028 0.7695886 0.25
v -1.091514 0.8414931 0.5
v -1.133028 0.7695886 0.416667
v -1.091514 0.8414931 0.666667
v -1.133028 0.7695886 0.583333
v -1.133028 0.7695886 0.75
v -1.091514 0.8414931 0.833333
v -1.133028 0.7695886 0.916667
v 1.091514 0.8414931 -1
v 1.133028 0.7695886 -0.9166666
v 1 1 -1
v 1.091514 0.8414931 -0.8333333
v 1.091514 0.8414931 -0.6666667
v 1.133028 0.7695886 -0.75
v 1.091514 0.8414931 -0.5
v 1.133028 0.7695886 -0.5833333
v 1.091514 0.8414931 -0.3333333
v 1.133028 0.7695886 -0.4166667
v 1.091514 0.8414931 -0.1666667
v 1.133028 0.7695886 -0.25
v 1.091514 0.8414931 0
v 1.133028 0.7695886 -0.08333337
v 1.091514 0.8414931 0.166667
v 1.133028 0.7695886 0.08333302
v 1.091514 0.8414931 0.333333
v 1.133028 0.7695886 0.25
v 1.091514 0.8414931 0.5
v 1.133028 0.7695886 0.416667
v 1.091514 0.8414931 0.666667
v 1.133028 0.7695886 0.583333
v 1.133028 0.7695886 0.75
v 1.091514 0.8414931 0.833333
v 1.133028 0.7695886 0.916667
v 1.091514 0.8414931 1
v 1 0.8414931 -1.091514
v -0.916667 0.7695886 -1.133028
v -0.833333 0.8414931 -1.091514
v -0.666667 0.8414931 -1.091514
v -0.5 0.8414931 -1.091514
v -0.333333 0.8414931 -1.091514
v -0.166667 0.8414931 -1.091514
v 0 0.8414931 -1.091514
v 0.1666667 0.8414931 -1.091514
v 0.3333333 0.8414931 -1.091514
v 0.5 0.8414931 -1.091514
v 0.6666667 0.8414931 -1.091514
v 0.8333333 0.8414931 -1.091514
v 0.9166666 0.7695886 -1.133028
v 0.75 0.7695886 -1.133028
v 0.5833333 0.7695886 -1.133028
v 0.4166667 0.7695886 -1.133028
v 0.25 0.7695886 -1.133028
v 0.08333337 0.7695886 -1.133028
v -0.08333302 0.7695886 -1.133028
v -0.25 0.7695886 -1.133028
v -0.416667 0.7695886 -1.133028
v -0.583333 0.7695886 -1.133028
v -0.75 0.7695886 -1.133028
v -1 0 -1
v -1 0 1
v 1 0 1
v 1 0 -1

vn -0.6546537 0.3779645 -0.6546537
vn 0.6546537 -0.3779645 0.6546537
vn 0 0.4999999 0.8660254
vn 0 -0.4999999 -0.8660254
vn -0.6546537 0.3779645 0.6546537
vn 0.6546537 -0.3779645 -0.6546537
vn -0.8660254 0.4999999 0
vn 0.8660254 -0.4999999 0
vn 0.8660255 0.4999999 0
vn -0.8660255 -0.4999999 0
vn 0 1 0
vn 0.6546537 0.3779645 -0.6546537
vn -0.6546537 -0.3779645 0.6546537
vn 0.6546535 0.3779645 0.6546537
vn -0.6546535 -0.3779645 -0.6546537
vn 0 0.4999999 -0.8660254
vn 0 -0.4999999 0.8660254
vn -1 0 0
vn 0 -1 0
vn 0 0 1
vn 0 0 -1
vn 1 0 0

vt 2.547646 8.664986
vt -2.547643 8.664986
vt 1.551067E-06 15.40542
vt 36.08924 3.935808
vt 32.8084 7.204628
vt 39.37008 7.204628
vt 39.37008 14.41046
vt 26.24672 7.204628
vt 19.68504 7.204628
vt 13.12336 7.204628
vt 6.561681 7.204628
vt -1.396551E-15 7.204628
vt -6.561693 7.204628
vt -13.12335 7.204628
vt -19.68504 7.204628
vt -26.24673 7.204628
vt -32.80838 7.204628
vt -39.37008 7.204628
vt -39.37008 14.41046
vt -36.08925 3.935808
vt -29.52756 3.935808
vt -22.96587 3.935808
vt -16.40421 3.935808
vt -9.84252 3.935808
vt -3.280827 3.935808
vt 3.280843 3.935808
vt 9.84252 3.935808
vt 16.4042 3.935808
vt 22.96588 3.935808
vt 29.52756 3.935808
vt -2.547644 8.664985
vt 0 15.40542
vt 2.547644 8.664985
vt -32.8084 7.204628
vt -36.08924 3.935808
vt -26.24672 7.204628
vt -22.96588 3.935808
vt -13.12336 7.204628
vt -16.4042 3.935808
vt -6.561681 7.204628
vt -2.996297E-14 7.204628
vt -3.280838 3.935808
vt 6.561693 7.204628
vt 3.280827 3.935808
vt 13.12335 7.204628
vt 16.40421 3.935808
vt 26.24673 7.204628
vt 22.96587 3.935808
vt 32.80838 7.204628
vt 36.08925 3.935808
vt 39.37008 7.204629
vt 36.08924 3.935809
vt 39.37008 14.41046
vt 32.8084 7.204629
vt -39.37008 14.41046
vt 26.24672 7.204629
vt 29.52756 3.935809
vt 19.68504 7.204629
vt 22.96588 3.935809
vt 13.12336 7.204629
vt 16.4042 3.935809
vt 6.561681 7.204629
vt 9.84252 3.935809
vt -4.255295E-12 7.204629
vt 3.280843 3.935809
vt -6.561693 7.204629
vt -3.280827 3.935809
vt -13.12335 7.204629
vt -9.84252 3.935809
vt -19.68504 7.204629
vt -16.40421 3.935809
vt -26.24673 7.204629
vt -22.96587 3.935809
vt -29.52756 3.935809
vt -32.80838 7.204629
vt -36.08925 3.935809
vt -39.37008 7.204629
vt -39.37008 39.37008
vt 39.37008 39.37008
vt -39.37008 -39.37008
vt 39.37008 -39.37008
vt 2.547645 8.664982
vt -2.547645 8.664982
vt -1.112674E-10 15.40542
vt 2.547648 8.664983
vt -2.547641 8.664983
vt 3.041841E-06 15.40542
vt 36.08925 3.935807
vt 32.80838 7.204628
vt 39.37008 7.204628
vt 39.37008 14.41045
vt 26.24673 7.204628
vt 19.68504 7.204628
vt 13.12335 7.204628
vt 6.561693 7.204628
vt -3.50331E-07 7.204628
vt -6.561681 7.204628
vt -13.12336 7.204628
vt -19.68504 7.204628
vt -26.24672 7.204628
vt -32.8084 7.204628
vt -39.37008 7.204628
vt -39.37008 14.41045
vt -36.08924 3.935807
vt -29.52756 3.935807
vt -22.96588 3.935807
vt -16.4042 3.935807
vt -9.84252 3.935807
vt -3.280843 3.935807
vt 3.280826 3.935807
vt 9.84252 3.935807
vt 16.40421 3.935807
vt 22.96587 3.935807
vt 29.52756 3.935807
vt -39.37008 0
vt 39.37008 0
vt 39.37008 9.066912E-13
vt -39.37008 9.066912E-13
vt 39.37008 7.389646E-13
vt -39.37008 7.389646E-13

usemtl grass

f 3/3/1 2/2/1 1/1/1
f 1/1/2 2/2/2 3/3/2
f 6/6/3 5/5/3 4/4/3
f 5/5/3 6/6/3 7/7/3
f 5/5/3 7/7/3 8/8/3
f 8/8/3 7/7/3 9/9/3
f 9/9/3 7/7/3 10/10/3
f 10/10/3 7/7/3 11/11/3
f 11/11/3 7/7/3 12/12/3
f 12/12/3 7/7/3 13/13/3
f 13/13/3 7/7/3 14/14/3
f 14/14/3 7/7/3 15/15/3
f 15/15/3 7/7/3 16/16/3
f 16/16/3 7/7/3 17/17/3
f 17/17/3 7/7/3 18/18/3
f 18/18/3 7/7/3 19/19/3
f 18/18/3 20/20/3 17/17/3
f 17/17/3 21/21/3 16/16/3
f 16/16/3 22/22/3 15/15/3
f 15/15/3 23/23/3 14/14/3
f 14/14/3 24/24/3 13/13/3
f 13/13/3 25/25/3 12/12/3
f 12/12/3 26/26/3 11/11/3
f 11/11/3 27/27/3 10/10/3
f 10/10/3 28/28/3 9/9/3
f 9/9/3 29/29/3 8/8/3
f 8/8/3 30/30/3 5/5/3
f 4/4/4 5/5/4 6/6/4
f 7/7/4 6/6/4 5/5/4
f 8/8/4 7/7/4 5/5/4
f 9/9/4 7/7/4 8/8/4
f 10/10/4 7/7/4 9/9/4
f 11/11/4 7/7/4 10/10/4
f 12/12/4 7/7/4 11/11/4
f 13/13/4 7/7/4 12/12/4
f 14/14/4 7/7/4 13/13/4
f 15/15/4 7/7/4 14/14/4
f 16/16/4 7/7/4 15/15/4
f 17/17/4 7/7/4 16/16/4
f 18/18/4 7/7/4 17/17/4
f 19/19/4 7/7/4 18/18/4
f 17/17/4 20/20/4 18/18/4
f 16/16/4 21/21/4 17/17/4
f 15/15/4 22/22/4 16/16/4
f 14/14/4 23/23/4 15/15/4
f 13/13/4 24/24/4 14/14/4
f 12/12/4 25/25/4 13/13/4
f 11/11/4 26/26/4 12/12/4
f 10/10/4 27/27/4 11/11/4
f 9/9/4 28/28/4 10/10/4
f 8/8/4 29/29/4 9/9/4
f 5/5/4 30/30/4 8/8/4
f 18/33/5 19/32/5 31/31/5
f 31/31/6 19/32/6 18/33/6
f 1/18/7 19/7/7 3/19/7
f 19/7/7 1/18/7 32/34/7
f 32/34/7 1/18/7 33/35/7
f 19/7/7 32/34/7 34/36/7
f 34/36/7 32/34/7 35/21/7
f 19/7/7 34/36/7 36/15/7
f 36/15/7 34/36/7 37/37/7
f 19/7/7 36/15/7 38/38/7
f 38/38/7 36/15/7 39/39/7
f 19/7/7 38/38/7 40/40/7
f 40/40/7 38/38/7 41/24/7
f 19/7/7 40/40/7 42/41/7
f 42/41/7 40/40/7 43/42/7
f 19/7/7 42/41/7 44/43/7
f 44/43/7 42/41/7 45/44/7
f 19/7/7 44/43/7 46/45/7
f 46/45/7 44/43/7 47/27/7
f 19/7/7 46/45/7 48/9/7
f 48/9/7 46/45/7 49/46/7
f 19/7/7 48/9/7 50/47/7
f 50/47/7 48/9/7 51/48/7
f 19/7/7 50/47/7 52/30/7
f 19/7/7 52/30/7 53/49/7
f 19/7/7 53/49/7 54/50/7
f 19/7/7 54/50/7 31/6/7
f 3/19/8 19/7/8 1/18/8
f 32/34/8 1/18/8 19/7/8
f 33/35/8 1/18/8 32/34/8
f 34/36/8 32/34/8 19/7/8
f 35/21/8 32/34/8 34/36/8
f 36/15/8 34/36/8 19/7/8
f 37/37/8 34/36/8 36/15/8
f 38/38/8 36/15/8 19/7/8
f 39/39/8 36/15/8 38/38/8
f 40/40/8 38/38/8 19/7/8
f 41/24/8 38/38/8 40/40/8
f 42/41/8 40/40/8 19/7/8
f 43/42/8 40/40/8 42/41/8
f 44/43/8 42/41/8 19/7/8
f 45/44/8 42/41/8 44/43/8
f 46/45/8 44/43/8 19/7/8
f 47/27/8 44/43/8 46/45/8
f 48/9/8 46/45/8 19/7/8
f 49/46/8 46/45/8 48/9/8
f 50/47/8 48/9/8 19/7/8
f 51/48/8 48/9/8 50/47/8
f 52/30/8 50/47/8 19/7/8
f 53/49/8 52/30/8 19/7/8
f 54/50/8 53/49/8 19/7/8
f 31/6/8 54/50/8 19/7/8
f 57/53/9 56/52/9 55/51/9
f 56/52/9 57/53/9 58/54/9
f 58/54/9 57/53/9 7/55/9
f 58/54/9 7/55/9 59/56/9
f 58/54/9 59/56/9 60/57/9
f 59/56/9 7/55/9 61/58/9
f 59/56/9 61/58/9 62/59/9
f 61/58/9 7/55/9 63/60/9
f 61/58/9 63/60/9 64/61/9
f 63/60/9 7/55/9 65/62/9
f 63/60/9 65/62/9 66/63/9
f 65/62/9 7/55/9 67/64/9
f 65/62/9 67/64/9 68/65/9
f 67/64/9 7/55/9 69/66/9
f 67/64/9 69/66/9 70/67/9
f 69/66/9 7/55/9 71/68/9
f 69/66/9 71/68/9 72/69/9
f 71/68/9 7/55/9 73/70/9
f 71/68/9 73/70/9 74/71/9
f 73/70/9 7/55/9 75/72/9
f 73/70/9 75/72/9 76/73/9
f 75/72/9 7/55/9 77/74/9
f 77/74/9 7/55/9 78/75/9
f 78/75/9 7/55/9 79/76/9
f 79/76/9 7/55/9 80/77/9
f 55/51/10 56/52/10 57/53/10
f 58/54/10 57/53/10 56/52/10
f 7/55/10 57/53/10 58/54/10
f 59/56/10 7/55/10 58/54/10
f 60/57/10 59/56/10 58/54/10
f 61/58/10 7/55/10 59/56/10
f 62/59/10 61/58/10 59/56/10
f 63/60/10 7/55/10 61/58/10
f 64/61/10 63/60/10 61/58/10
f 65/62/10 7/55/10 63/60/10
f 66/63/10 65/62/10 63/60/10
f 67/64/10 7/55/10 65/62/10
f 68/65/10 67/64/10 65/62/10
f 69/66/10 7/55/10 67/64/10
f 70/67/10 69/66/10 67/64/10
f 71/68/10 7/55/10 69/66/10
f 72/69/10 71/68/10 69/66/10
f 73/70/10 7/55/10 71/68/10
f 74/71/10 73/70/10 71/68/10
f 75/72/10 7/55/10 73/70/10
f 76/73/10 75/72/10 73/70/10
f 77/74/10 7/55/10 75/72/10
f 78/75/10 7/55/10 77/74/10
f 79/76/10 7/55/10 78/75/10
f 80/77/10 7/55/10 79/76/10
f 57/80/11 19/79/11 7/78/11
f 19/79/11 57/80/11 3/81/11
f 57/84/12 55/83/12 81/82/12
f 81/82/13 55/83/13 57/84/13
f 7/87/14 6/86/14 80/85/14
f 80/85/15 6/86/15 7/87/15
f 2/90/16 83/89/16 82/88/16
f 83/89/16 2/90/16 3/91/16
f 83/89/16 3/91/16 84/92/16
f 84/92/16 3/91/16 85/93/16
f 85/93/16 3/91/16 86/94/16
f 86/94/16 3/91/16 87/95/16
f 87/95/16 3/91/16 88/96/16
f 88/96/16 3/91/16 89/97/16
f 89/97/16 3/91/16 90/98/16
f 90/98/16 3/91/16 91/99/16
f 91/99/16 3/91/16 92/100/16
f 92/100/16 3/91/16 93/101/16
f 93/101/16 3/91/16 81/102/16
f 81/102/16 3/91/16 57/103/16
f 81/102/16 94/104/16 93/101/16
f 93/101/16 95/105/16 92/100/16
f 92/100/16 96/106/16 91/99/16
f 91/99/16 97/107/16 90/98/16
f 90/98/16 98/108/16 89/97/16
f 89/97/16 99/109/16 88/96/16
f 88/96/16 100/110/16 87/95/16
f 87/95/16 101/111/16 86/94/16
f 86/94/16 102/112/16 85/93/16
f 85/93/16 103/113/16 84/92/16
f 84/92/16 104/114/16 83/89/16
f 82/88/17 83/89/17 2/90/17
f 3/91/17 2/90/17 83/89/17
f 84/92/17 3/91/17 83/89/17
f 85/93/17 3/91/17 84/92/17
f 86/94/17 3/91/17 85/93/17
f 87/95/17 3/91/17 86/94/17
f 88/96/17 3/91/17 87/95/17
f 89/97/17 3/91/17 88/96/17
f 90/98/17 3/91/17 89/97/17
f 91/99/17 3/91/17 90/98/17
f 92/100/17 3/91/17 91/99/17
f 93/101/17 3/91/17 92/100/17
f 81/102/17 3/91/17 93/101/17
f 57/103/17 3/91/17 81/102/17
f 93/101/17 94/104/17 81/102/17
f 92/100/17 95/105/17 93/101/17
f 91/99/17 96/106/17 92/100/17
f 90/98/17 97/107/17 91/99/17
f 89/97/17 98/108/17 90/98/17
f 88/96/17 99/109/17 89/97/17
f 87/95/17 100/110/17 88/96/17
f 86/94/17 101/111/17 87/95/17
f 85/93/17 102/112/17 86/94/17
f 84/92/17 103/113/17 85/93/17
f 83/89/17 104/114/17 84/92/17

usemtl dirt

f 106/116/18 3/78/18 105/115/18
f 3/78/18 106/116/18 19/79/18
f 106/78/19 108/81/19 107/79/19
f 108/81/19 106/78/19 105/80/19
f 7/79/20 106/115/20 107/116/20
f 106/115/20 7/79/20 19/78/20
f 3/79/21 108/118/21 105/117/21
f 108/118/21 3/79/21 57/78/21
f 7/78/22 108/119/22 57/79/22
f 108/119/22 7/78/22 107/120/22

