# Created by Kenney (www.kenney.nl)

mtllib blockDirt.mtl

g blockDirt

v -0.5 0 -0.5
v -0.5 1 -0.5
v -0.5 0 0.5
v -0.5 1 0.5
v 0.5 0 0.5
v 0.5 0 -0.5
v 0.5 1 -0.5
v 0.5 1 0.5

vn -1 0 0
vn 0 -1 0
vn 1 0 0
vn 0 0 1
vn 0 0 -1
vn 0 1 0

vt -19.68504 0
vt -19.68504 39.37008
vt 19.68504 0
vt 19.68504 39.37008
vt 19.68504 19.68504
vt 19.68504 -19.68504
vt -19.68504 19.68504
vt -19.68504 -19.68504
vt 19.68504 -4.604317E-12
vt -19.68504 -4.604317E-12
vt 19.68504 4.973799E-12
vt -19.68504 4.973799E-12

usemtl dirt

f 3/3/1 2/2/1 1/1/1
f 2/2/1 3/3/1 4/4/1
f 3/7/2 6/6/2 5/5/2
f 6/6/2 3/7/2 1/8/2
f 8/2/3 6/9/3 7/4/3
f 6/9/3 8/2/3 5/10/3
f 8/4/4 3/1/4 5/3/4
f 3/1/4 8/4/4 4/2/4
f 2/4/5 6/12/5 1/11/5
f 6/12/5 2/4/5 7/2/5
f 7/8/6 4/5/6 8/7/6
f 4/5/6 7/8/6 2/6/6

